<svg version="1.1" id="Layer_1" xmlns="http://www.w3.org/2000/svg" xmlns:xlink="http://www.w3.org/1999/xlink" x="0px" y="0px"
	 width="100%" viewBox="0 0 714 715" enable-background="new 0 0 714 715" xml:space="preserve">
<path fill="#02C3CB" opacity="1.000000" stroke="none" 
	d="
M596.739990,99.242188 
	C603.988098,106.488426 611.165588,113.315132 617.945068,120.516441 
	C635.946289,139.637650 651.424377,160.642151 664.770447,183.282242 
	C678.727356,206.958618 689.523560,232.000977 696.919800,258.383179 
	C701.427185,274.460754 704.807312,290.896332 707.848206,307.327576 
	C709.722046,317.452423 710.314453,327.853699 710.918274,338.163879 
	C711.605957,349.907837 712.367249,361.719727 711.845886,373.446442 
	C710.900818,394.704163 709.207764,416.025360 703.537903,436.605042 
	C698.030029,456.596588 692.346802,476.685944 684.610779,495.873688 
	C677.764954,512.853455 668.704956,529.075623 659.349854,544.878906 
	C642.573608,573.218750 621.230164,598.068298 597.022095,620.305237 
	C580.401306,635.572632 562.476257,649.298279 543.084229,660.979919 
	C514.810608,678.011719 485.212860,692.051697 453.027039,699.995850 
	C438.366669,703.614258 423.631592,707.018005 408.795990,709.803162 
	C400.758392,711.312134 392.449554,711.565613 384.242767,711.940186 
	C371.988373,712.499451 359.690857,713.323486 347.456818,712.855164 
	C325.367401,712.009460 303.471771,709.427124 281.802612,704.548462 
	C262.399353,700.179993 243.363617,694.625244 225.232300,686.735657 
	C207.972794,679.225403 191.003281,670.703003 174.902267,660.976746 
	C159.885818,651.905640 145.434555,641.537109 132.102249,630.139648 
	C118.242378,618.291138 105.793030,604.744202 93.144081,591.540344 
	C78.615227,576.374146 66.802597,559.075928 55.827492,541.244629 
	C45.054523,523.741699 36.369728,505.184723 29.035978,485.987457 
	C21.074261,465.146454 15.386813,443.655762 11.155952,421.800629 
	C9.480312,413.144867 8.708956,404.277161 8.069439,395.466492 
	C7.125250,382.458344 6.093699,369.413605 6.123771,356.386810 
	C6.181437,331.406464 9.189421,306.762360 14.702578,282.300842 
	C21.469154,252.278030 31.838890,223.701508 45.949997,196.451645 
	C55.935368,177.168961 67.669647,158.949203 81.458153,142.158142 
	C88.981468,132.996582 97.025497,124.251930 105.033646,115.501328 
	C124.179871,94.580002 146.234497,77.079247 169.937592,61.691143 
	C189.774796,48.812790 210.913925,38.380714 233.070343,30.012367 
	C253.941528,22.129450 275.406311,16.372591 297.263855,12.151031 
	C305.920410,10.479106 314.785797,9.620993 323.598267,9.082328 
	C339.441406,8.113912 355.332672,6.870745 371.174072,7.195066 
	C392.792297,7.637658 414.419861,9.803993 435.366547,15.337287 
	C454.780426,20.465683 474.259613,25.937046 492.860626,33.380184 
	C510.151611,40.299095 526.874878,49.106136 542.825439,58.769936 
	C557.970581,67.945732 571.850037,79.228104 586.152649,89.765282 
	C589.854614,92.492683 593.056396,95.898956 596.739990,99.242188 
M27.894501,407.600372 
	C30.871262,428.589325 35.781853,449.113556 42.798527,469.119965 
	C67.671944,540.040649 110.995155,597.141357 173.687454,638.380005 
	C253.457886,690.852539 340.842865,706.966125 434.043488,685.750122 
	C520.230530,666.130615 588.364929,618.644836 637.393616,545.286011 
	C682.773438,477.386749 700.346985,402.065979 691.095825,320.777374 
	C684.615295,263.833466 664.400879,212.040588 631.092163,165.479630 
	C592.556458,111.612000 542.264832,72.507393 480.612244,48.416946 
	C418.123810,23.999889 353.808319,18.961983 288.247070,33.118828 
	C218.011444,48.285004 158.621017,82.863152 110.498962,136.070618 
	C67.826439,183.252640 40.993629,238.544769 29.714388,301.260376 
	C23.410999,336.308868 22.872656,371.463654 27.894501,407.600372 
z"/>
<path fill="#FFFFFF" opacity="1.000000" stroke="none" 
	d="
M27.847225,407.158600 
	C22.872656,371.463654 23.410999,336.308868 29.714388,301.260376 
	C40.993629,238.544769 67.826439,183.252640 110.498962,136.070618 
	C158.621017,82.863152 218.011444,48.285004 288.247070,33.118828 
	C353.808319,18.961983 418.123810,23.999889 480.612244,48.416946 
	C542.264832,72.507393 592.556458,111.612000 631.092163,165.479630 
	C664.400879,212.040588 684.615295,263.833466 691.095825,320.777374 
	C700.346985,402.065979 682.773438,477.386749 637.393616,545.286011 
	C588.364929,618.644836 520.230530,666.130615 434.043488,685.750122 
	C340.842865,706.966125 253.457886,690.852539 173.687454,638.380005 
	C110.995155,597.141357 67.671944,540.040649 42.798527,469.119965 
	C35.781853,449.113556 30.871262,428.589325 27.847225,407.158600 
M311.881134,303.859436 
	C312.010315,304.010712 312.139465,304.161957 311.837372,304.928436 
	C309.486389,313.476318 314.761353,317.233276 324.501587,315.159332 
	C325.167816,317.670715 325.160583,320.626953 326.622101,322.300842 
	C328.040192,323.925049 330.914124,324.728729 333.245331,324.973663 
	C335.420990,325.202301 337.723633,324.222931 340.058319,323.757751 
	C339.103821,328.332062 342.519287,329.518005 345.957245,330.454529 
	C353.735046,332.573425 361.540497,335.420959 369.368927,330.464355 
	C369.943146,330.100769 370.973206,330.509857 371.785461,330.461395 
	C382.231445,329.838409 388.909576,321.764648 397.477692,317.424255 
	C397.722198,317.300354 397.752350,316.807373 397.980011,316.587555 
	C399.527222,315.093719 400.869232,313.175751 402.707458,312.233185 
	C409.154602,308.927094 412.166138,302.786377 409.489594,296.669464 
	C412.961243,295.687958 416.363312,294.726135 420.220154,293.635712 
	C420.926575,297.359009 421.438507,300.598724 422.198395,303.779144 
	C422.477692,304.948090 423.231720,306.838470 423.958801,306.932434 
	C429.382202,307.633484 434.821228,307.915527 440.270874,308.763672 
	C447.287598,309.855652 454.915466,307.020752 462.225983,305.885620 
	C462.225983,280.406342 462.225983,255.272400 462.225983,229.130569 
	C445.119629,235.392365 428.896576,241.328094 412.683807,247.291779 
	C412.440887,247.381134 412.325623,247.817474 412.047455,248.254059 
	C412.364166,250.680069 412.699219,253.246658 413.035645,255.823929 
	C398.565277,257.089020 392.438446,255.716873 378.037598,246.849503 
	C370.832245,242.412750 363.102081,240.501129 354.877716,240.101532 
	C349.582092,239.844223 343.881378,238.352615 339.805450,243.629669 
	C339.575653,243.927216 338.867279,243.889572 338.374603,243.944687 
	C327.347321,245.178375 316.319092,246.403183 304.455322,247.722626 
	C306.297394,242.214417 302.525452,242.266541 299.295441,241.267227 
	C295.363953,240.050888 291.723419,237.877136 287.780548,236.718018 
	C277.132904,233.587799 266.391693,230.776001 255.494507,227.784866 
	C255.494507,253.423141 255.494507,278.496887 255.494507,303.777985 
	C263.414490,304.534607 271.010040,305.303375 278.616425,305.943451 
	C279.851685,306.047394 281.175354,305.714630 282.386993,305.348328 
	C284.445312,304.726105 286.398682,303.553772 288.484528,303.275757 
	C291.228180,302.910034 294.057343,303.185913 296.813965,303.185913 
	C297.406403,300.872955 297.851532,299.135101 298.495056,296.622803 
	C299.829712,297.500092 301.280365,297.915894 301.666290,298.797699 
	C303.642792,303.313965 307.205841,304.042725 311.881134,303.859436 
M409.829376,417.499939 
	C409.829376,428.702240 409.829376,439.904510 409.829376,451.106812 
	C407.834778,449.796082 406.851410,448.310120 405.929840,446.786682 
	C394.832458,428.441986 383.770081,410.075928 372.608673,391.770233 
	C371.626801,390.159912 370.115234,387.862915 368.673187,387.724579 
	C363.528046,387.230988 358.306671,387.531525 353.132263,387.531525 
	C353.132263,422.309479 353.132263,456.233398 353.132263,490.993896 
	C357.697296,490.993896 361.979095,490.844940 366.245453,491.037842 
	C370.140411,491.213898 371.316101,489.702240 371.261047,485.781189 
	C371.041138,470.121124 371.170502,454.456207 371.170624,438.793060 
	C371.170654,434.890656 371.170593,430.988251 371.170593,425.705994 
	C372.465485,427.510315 372.940460,428.092560 373.330444,428.727051 
	C385.253632,448.126251 397.148621,467.542877 409.124390,486.909546 
	C410.032684,488.378387 411.419373,490.490143 412.731262,490.604065 
	C417.746399,491.039581 422.821899,490.780090 427.971649,490.780090 
	C427.971649,456.011658 427.971649,422.053192 427.971649,387.083160 
	C423.177490,387.083160 418.569244,387.197815 413.969910,387.044495 
	C410.678711,386.934784 409.694763,388.302094 409.767181,391.506989 
	C409.955261,399.834167 409.829742,408.168457 409.829376,417.499939 
M464.850616,485.713684 
	C479.248627,494.382080 494.339447,494.312500 509.341553,488.149506 
	C520.471313,483.577240 525.099548,473.430084 526.337219,462.326416 
	C527.678833,450.290253 527.714722,438.090210 527.952087,425.954437 
	C528.199280,413.320129 528.007202,400.677277 528.007202,387.670105 
	C520.782043,387.670105 513.959229,387.670105 506.823090,387.670105 
	C506.823090,407.328827 507.013000,426.314880 506.715454,445.293243 
	C506.617249,451.556641 505.776855,457.921631 504.342743,464.020782 
	C502.720612,470.919556 497.464172,474.060028 489.643097,474.091400 
	C481.346771,474.124695 476.048828,471.116364 474.186401,464.298584 
	C472.845581,459.390289 472.060547,454.199158 471.940674,449.112701 
	C471.567780,433.293976 471.589111,417.465210 471.534851,401.640045 
	C471.481659,386.119629 471.523224,386.119080 455.867554,387.009430 
	C455.368713,387.037811 454.871277,387.130249 454.373383,387.128662 
	C451.616394,387.119904 450.755127,388.467041 450.774506,391.196167 
	C450.924713,412.358612 450.521973,433.534882 451.167725,454.680054 
	C451.521576,466.267365 454.394714,477.447266 464.850616,485.713684 
M569.055481,490.789886 
	C569.705200,489.159271 570.884705,487.539001 570.916870,485.896271 
	C571.098389,476.618347 571.004578,467.335022 571.004578,457.803833 
	C572.943604,457.803833 574.387329,457.840271 575.828674,457.798035 
	C586.521729,457.484619 597.261108,456.955414 606.064636,449.861481 
	C618.322021,439.984344 619.667969,426.632812 617.199158,412.296539 
	C615.138855,400.331665 607.842834,392.651398 596.648560,388.926483 
	C581.420532,383.859406 565.845642,386.342682 550.181885,387.241608 
	C550.181885,421.823181 550.181885,455.887909 550.181885,490.842834 
	C556.270386,490.842834 562.197083,490.842834 569.055481,490.789886 
M320.088501,445.529022 
	C323.378906,445.977875 325.162476,444.799347 325.014252,441.220154 
	C324.890503,438.232971 324.845428,435.231598 324.987640,432.247131 
	C325.151428,428.810425 323.753357,427.655426 320.291626,427.747833 
	C312.011810,427.968872 303.722107,427.819214 295.149506,427.819214 
	C295.149506,420.101990 295.149506,412.891632 295.149506,405.218414 
	C307.535706,405.218414 319.631195,405.218414 332.253113,405.218414 
	C332.253113,399.099030 332.253113,393.445618 332.253113,387.791565 
	C312.409180,387.791565 293.320984,387.791565 274.027466,387.791565 
	C274.027466,422.042023 274.027466,455.971039 274.027466,490.198273 
	C293.746338,490.198273 313.280579,490.198273 333.355347,490.198273 
	C333.355347,484.333252 333.355347,478.801300 333.355347,472.794159 
	C320.288788,472.794159 307.865112,472.794159 295.280701,472.794159 
	C295.280701,463.477570 295.280701,454.641785 295.280701,445.529663 
	C303.531097,445.529663 311.349640,445.529663 320.088501,445.529022 
M120.532967,415.509644 
	C120.532967,412.234558 120.532967,408.959473 120.532967,405.141205 
	C133.407867,405.141205 145.648987,405.141205 158.320892,405.141205 
	C158.320892,399.032196 158.320892,393.476776 158.320892,387.733337 
	C138.554001,387.733337 119.470261,387.733337 100.127213,387.733337 
	C100.127213,422.018829 100.127213,456.037659 100.127213,490.282654 
	C119.848778,490.282654 139.259567,490.282654 159.211731,490.282654 
	C159.211731,484.392853 159.211731,478.756256 159.211731,472.659546 
	C146.004547,472.659546 133.582932,472.659546 120.889572,472.659546 
	C120.889572,463.486633 120.889572,454.778961 120.889572,446.210327 
	C121.534958,445.934601 121.828278,445.701355 122.123589,445.698792 
	C130.278549,445.628296 138.438980,445.717407 146.583847,445.401703 
	C148.007431,445.346527 150.463226,443.707489 150.564346,442.624603 
	C151.005600,437.899384 150.754059,433.109406 150.754059,427.816650 
	C143.891556,427.816650 137.769180,427.816650 131.646820,427.816650 
	C120.533340,427.816650 120.533340,427.816650 120.532967,415.509644 
M248.506012,386.991333 
	C247.172592,386.992920 245.819901,387.141571 244.509140,386.970001 
	C239.428131,386.304901 237.292587,388.641449 236.046371,393.524994 
	C232.262482,408.352875 227.980331,423.054169 223.846848,437.792023 
	C221.151337,447.402832 218.376816,456.991516 215.637695,466.590088 
	C215.278107,466.578522 214.918518,466.566986 214.558945,466.555420 
	C207.271194,440.260590 199.983459,413.965759 192.617264,387.387817 
	C185.192337,387.387817 177.948990,387.387817 170.097061,387.387817 
	C170.722626,389.418762 171.131271,390.785126 171.563782,392.143921 
	C180.411728,419.941223 189.352264,447.709442 198.078461,475.544891 
	C203.232178,491.984619 203.074707,491.894440 220.470032,491.232178 
	C224.800964,491.067291 226.796692,489.565094 228.104950,485.397827 
	C235.225998,462.714935 242.675171,440.135223 249.967484,417.505859 
	C253.108643,407.758270 256.143890,397.976562 259.451874,387.498993 
	C255.668839,387.306671 252.567871,387.149017 248.506012,386.991333 
z"/>
<path fill="#07C4CD" opacity="1.000000" stroke="none" 
	d="
M311.496277,303.403503 
	C307.205841,304.042725 303.642792,303.313965 301.666290,298.797699 
	C301.280365,297.915894 299.829712,297.500092 298.495056,296.622803 
	C297.851532,299.135101 297.406403,300.872955 296.813965,303.185913 
	C294.057343,303.185913 291.228180,302.910034 288.484528,303.275757 
	C286.398682,303.553772 284.445312,304.726105 282.386993,305.348328 
	C281.175354,305.714630 279.851685,306.047394 278.616425,305.943451 
	C271.010040,305.303375 263.414490,304.534607 255.494507,303.777985 
	C255.494507,278.496887 255.494507,253.423141 255.494507,227.784866 
	C266.391693,230.776001 277.132904,233.587799 287.780548,236.718018 
	C291.723419,237.877136 295.363953,240.050888 299.295441,241.267227 
	C302.525452,242.266541 306.297394,242.214417 304.455322,247.722626 
	C316.319092,246.403183 327.347321,245.178375 338.374603,243.944687 
	C338.867279,243.889572 339.575653,243.927216 339.805450,243.629669 
	C343.881378,238.352615 349.582092,239.844223 354.877716,240.101532 
	C363.102081,240.501129 370.832245,242.412750 378.037598,246.849503 
	C392.438446,255.716873 398.565277,257.089020 413.035645,255.823929 
	C412.699219,253.246658 412.364166,250.680069 412.047455,248.254059 
	C412.325623,247.817474 412.440887,247.381134 412.683807,247.291779 
	C428.896576,241.328094 445.119629,235.392365 462.225983,229.130569 
	C462.225983,255.272400 462.225983,280.406342 462.225983,305.885620 
	C454.915466,307.020752 447.287598,309.855652 440.270874,308.763672 
	C434.821228,307.915527 429.382202,307.633484 423.958801,306.932434 
	C423.231720,306.838470 422.477692,304.948090 422.198395,303.779144 
	C421.438507,300.598724 420.926575,297.359009 420.220154,293.635712 
	C416.363312,294.726135 412.961243,295.687958 409.489594,296.669464 
	C412.166138,302.786377 409.154602,308.927094 402.707458,312.233185 
	C400.869232,313.175751 399.527222,315.093719 397.980011,316.587555 
	C397.752350,316.807373 397.722198,317.300354 397.477692,317.424255 
	C388.909576,321.764648 382.231445,329.838409 371.785461,330.461395 
	C370.973206,330.509857 369.943146,330.100769 369.368927,330.464355 
	C361.540497,335.420959 353.735046,332.573425 345.957245,330.454529 
	C342.519287,329.518005 339.103821,328.332062 340.058319,323.757751 
	C337.723633,324.222931 335.420990,325.202301 333.245331,324.973663 
	C330.914124,324.728729 328.040192,323.925049 326.622101,322.300842 
	C325.160583,320.626953 325.167816,317.670715 324.501587,315.159332 
	C314.761353,317.233276 309.486389,313.476318 312.335052,304.525146 
	C313.022980,303.781921 313.213226,303.441986 313.403473,303.102081 
	C312.767731,303.202576 312.132019,303.303040 311.496277,303.403503 
M397.878540,307.873749 
	C400.322540,306.206482 403.121796,304.842926 404.977142,302.672455 
	C405.482513,302.081268 403.419189,298.835052 402.065277,297.194885 
	C396.776276,290.787628 391.292603,284.541321 385.893433,278.224762 
	C378.061218,269.061768 370.894226,259.191986 358.724792,255.001282 
	C356.184540,254.126480 354.488098,253.714401 351.986145,255.365784 
	C346.830475,258.768707 341.488403,257.716400 338.054474,252.658798 
	C336.340607,250.134476 334.515106,249.602798 331.828674,249.932861 
	C323.593872,250.944626 315.362000,252.038544 307.097687,252.721649 
	C304.083923,252.970749 303.242340,254.078308 302.945923,256.904022 
	C302.026581,265.668304 300.782410,274.398254 299.697510,283.145630 
	C299.340851,286.021271 299.085510,288.909485 298.725555,292.348633 
	C301.576935,292.056091 303.719116,292.017059 305.780518,291.589050 
	C310.869965,290.532410 313.806824,292.061096 316.335724,296.634766 
	C317.148163,298.104156 318.980530,299.767975 320.514618,299.953888 
	C328.919617,300.972382 329.435577,301.257355 330.662659,309.356049 
	C335.028961,307.584442 335.809326,300.633179 342.039673,301.844421 
	C348.748444,303.148682 347.902588,308.333008 348.083405,313.234192 
	C352.291412,312.445099 356.548340,312.538391 356.978821,317.230865 
	C357.267456,320.377502 355.185944,323.741547 353.831757,328.074463 
	C357.658569,327.844360 361.024933,327.641968 365.395508,327.379181 
	C363.006226,323.931000 361.444672,321.677399 359.711243,319.175781 
	C361.086273,318.214081 362.241302,317.406250 363.495331,316.529205 
	C366.130066,319.490631 368.082153,322.999268 371.064758,324.690552 
	C374.470215,326.621674 378.084961,325.114899 380.451660,321.213959 
	C376.098358,315.480316 371.802612,309.822510 367.310059,303.905457 
	C368.668610,302.782410 369.743317,301.894043 371.196075,300.693115 
	C375.140472,305.828339 378.818390,310.710999 382.602875,315.509552 
	C385.019348,318.573547 388.514008,318.438538 392.025208,315.468872 
	C394.981018,312.968933 393.420898,311.041870 391.579132,308.832611 
	C385.858917,301.970947 380.255219,295.012238 374.438110,287.885101 
	C375.897644,286.719391 377.016785,285.825562 378.373657,284.741852 
	C384.766235,292.449707 391.005280,299.972443 397.878540,307.873749 
M426.015900,252.411469 
	C425.654633,251.063904 425.293365,249.716354 424.921753,248.330200 
	C421.991577,249.191971 419.622833,249.888626 416.939362,250.677841 
	C420.036163,267.445679 423.076447,284.053986 426.247131,300.637360 
	C426.403442,301.454803 427.681702,302.626556 428.465759,302.649048 
	C430.865601,302.717926 433.279236,302.306427 435.909851,302.061035 
	C432.583130,285.444000 429.362762,269.358246 426.015900,252.411469 
M289.977814,254.599121 
	C287.967682,269.223755 285.957550,283.848389 283.941345,298.517426 
	C287.182465,298.517426 290.075104,298.517426 293.239349,298.517426 
	C295.457367,280.924713 297.630615,263.687317 299.845856,246.116638 
	C296.869995,245.513733 294.343689,245.001892 291.495453,244.424850 
	C290.950195,247.863480 290.486420,250.788193 289.977814,254.599121 
M326.228271,313.321716 
	C326.023804,313.896027 325.819305,314.470306 325.614807,315.044617 
	C326.085388,314.637573 326.555969,314.230499 326.228271,313.321716 
z"/>
<path fill="#02C2CB" opacity="1.000000" stroke="none" 
	d="
M409.829376,416.999939 
	C409.829742,408.168457 409.955261,399.834167 409.767181,391.506989 
	C409.694763,388.302094 410.678711,386.934784 413.969910,387.044495 
	C418.569244,387.197815 423.177490,387.083160 427.971649,387.083160 
	C427.971649,422.053192 427.971649,456.011658 427.971649,490.780090 
	C422.821899,490.780090 417.746399,491.039581 412.731262,490.604065 
	C411.419373,490.490143 410.032684,488.378387 409.124390,486.909546 
	C397.148621,467.542877 385.253632,448.126251 373.330444,428.727051 
	C372.940460,428.092560 372.465485,427.510315 371.170593,425.705994 
	C371.170593,430.988251 371.170654,434.890656 371.170624,438.793060 
	C371.170502,454.456207 371.041138,470.121124 371.261047,485.781189 
	C371.316101,489.702240 370.140411,491.213898 366.245453,491.037842 
	C361.979095,490.844940 357.697296,490.993896 353.132263,490.993896 
	C353.132263,456.233398 353.132263,422.309479 353.132263,387.531525 
	C358.306671,387.531525 363.528046,387.230988 368.673187,387.724579 
	C370.115234,387.862915 371.626801,390.159912 372.608673,391.770233 
	C383.770081,410.075928 394.832458,428.441986 405.929840,446.786682 
	C406.851410,448.310120 407.834778,449.796082 409.829376,451.106812 
	C409.829376,439.904510 409.829376,428.702240 409.829376,416.999939 
z"/>
<path fill="#04C3CC" opacity="1.000000" stroke="none" 
	d="
M464.567444,485.491913 
	C454.394714,477.447266 451.521576,466.267365 451.167725,454.680054 
	C450.521973,433.534882 450.924713,412.358612 450.774506,391.196167 
	C450.755127,388.467041 451.616394,387.119904 454.373383,387.128662 
	C454.871277,387.130249 455.368713,387.037811 455.867554,387.009430 
	C471.523224,386.119080 471.481659,386.119629 471.534851,401.640045 
	C471.589111,417.465210 471.567780,433.293976 471.940674,449.112701 
	C472.060547,454.199158 472.845581,459.390289 474.186401,464.298584 
	C476.048828,471.116364 481.346771,474.124695 489.643097,474.091400 
	C497.464172,474.060028 502.720612,470.919556 504.342743,464.020782 
	C505.776855,457.921631 506.617249,451.556641 506.715454,445.293243 
	C507.013000,426.314880 506.823090,407.328827 506.823090,387.670105 
	C513.959229,387.670105 520.782043,387.670105 528.007202,387.670105 
	C528.007202,400.677277 528.199280,413.320129 527.952087,425.954437 
	C527.714722,438.090210 527.678833,450.290253 526.337219,462.326416 
	C525.099548,473.430084 520.471313,483.577240 509.341553,488.149506 
	C494.339447,494.312500 479.248627,494.382080 464.567444,485.491913 
z"/>
<path fill="#03C3CC" opacity="1.000000" stroke="none" 
	d="
M568.589661,490.816345 
	C562.197083,490.842834 556.270386,490.842834 550.181885,490.842834 
	C550.181885,455.887909 550.181885,421.823181 550.181885,387.241608 
	C565.845642,386.342682 581.420532,383.859406 596.648560,388.926483 
	C607.842834,392.651398 615.138855,400.331665 617.199158,412.296539 
	C619.667969,426.632812 618.322021,439.984344 606.064636,449.861481 
	C597.261108,456.955414 586.521729,457.484619 575.828674,457.798035 
	C574.387329,457.840271 572.943604,457.803833 571.004578,457.803833 
	C571.004578,467.335022 571.098389,476.618347 570.916870,485.896271 
	C570.884705,487.539001 569.705200,489.159271 568.589661,490.816345 
M580.161011,440.053986 
	C587.244324,439.768921 592.957703,436.941986 595.367371,430.043762 
	C598.017578,422.457001 597.796509,414.629486 592.003174,408.509735 
	C586.355896,402.544189 578.791382,402.809357 571.241150,403.821075 
	C571.241150,416.140625 571.241150,427.901306 571.241150,440.157684 
	C574.060547,440.157684 576.654175,440.157684 580.161011,440.053986 
z"/>
<path fill="#06C3CC" opacity="1.000000" stroke="none" 
	d="
M319.628357,445.529358 
	C311.349640,445.529663 303.531097,445.529663 295.280701,445.529663 
	C295.280701,454.641785 295.280701,463.477570 295.280701,472.794159 
	C307.865112,472.794159 320.288788,472.794159 333.355347,472.794159 
	C333.355347,478.801300 333.355347,484.333252 333.355347,490.198273 
	C313.280579,490.198273 293.746338,490.198273 274.027466,490.198273 
	C274.027466,455.971039 274.027466,422.042023 274.027466,387.791565 
	C293.320984,387.791565 312.409180,387.791565 332.253113,387.791565 
	C332.253113,393.445618 332.253113,399.099030 332.253113,405.218414 
	C319.631195,405.218414 307.535706,405.218414 295.149506,405.218414 
	C295.149506,412.891632 295.149506,420.101990 295.149506,427.819214 
	C303.722107,427.819214 312.011810,427.968872 320.291626,427.747833 
	C323.753357,427.655426 325.151428,428.810425 324.987640,432.247131 
	C324.845428,435.231598 324.890503,438.232971 325.014252,441.220154 
	C325.162476,444.799347 323.378906,445.977875 319.628357,445.529358 
z"/>
<path fill="#07C4CC" opacity="1.000000" stroke="none" 
	d="
M120.532913,416.003784 
	C120.533340,427.816650 120.533340,427.816650 131.646820,427.816650 
	C137.769180,427.816650 143.891556,427.816650 150.754059,427.816650 
	C150.754059,433.109406 151.005600,437.899384 150.564346,442.624603 
	C150.463226,443.707489 148.007431,445.346527 146.583847,445.401703 
	C138.438980,445.717407 130.278549,445.628296 122.123589,445.698792 
	C121.828278,445.701355 121.534958,445.934601 120.889572,446.210327 
	C120.889572,454.778961 120.889572,463.486633 120.889572,472.659546 
	C133.582932,472.659546 146.004547,472.659546 159.211731,472.659546 
	C159.211731,478.756256 159.211731,484.392853 159.211731,490.282654 
	C139.259567,490.282654 119.848778,490.282654 100.127213,490.282654 
	C100.127213,456.037659 100.127213,422.018829 100.127213,387.733337 
	C119.470261,387.733337 138.554001,387.733337 158.320892,387.733337 
	C158.320892,393.476776 158.320892,399.032196 158.320892,405.141205 
	C145.648987,405.141205 133.407867,405.141205 120.532967,405.141205 
	C120.532967,408.959473 120.532967,412.234558 120.532913,416.003784 
z"/>
<path fill="#05C3CC" opacity="1.000000" stroke="none" 
	d="
M248.986450,386.991333 
	C252.567871,387.149017 255.668839,387.306671 259.451874,387.498993 
	C256.143890,397.976562 253.108643,407.758270 249.967484,417.505859 
	C242.675171,440.135223 235.225998,462.714935 228.104950,485.397827 
	C226.796692,489.565094 224.800964,491.067291 220.470032,491.232178 
	C203.074707,491.894440 203.232178,491.984619 198.078461,475.544891 
	C189.352264,447.709442 180.411728,419.941223 171.563782,392.143921 
	C171.131271,390.785126 170.722626,389.418762 170.097061,387.387817 
	C177.948990,387.387817 185.192337,387.387817 192.617264,387.387817 
	C199.983459,413.965759 207.271194,440.260590 214.558945,466.555420 
	C214.918518,466.566986 215.278107,466.578522 215.637695,466.590088 
	C218.376816,456.991516 221.151337,447.402832 223.846848,437.792023 
	C227.980331,423.054169 232.262482,408.352875 236.046371,393.524994 
	C237.292587,388.641449 239.428131,386.304901 244.509140,386.970001 
	C245.819901,387.141571 247.172592,386.992920 248.986450,386.991333 
z"/>
<path fill="#FEFFFF" opacity="1.000000" stroke="none" 
	d="
M397.561432,307.684448 
	C391.005280,299.972443 384.766235,292.449707 378.373657,284.741852 
	C377.016785,285.825562 375.897644,286.719391 374.438110,287.885101 
	C380.255219,295.012238 385.858917,301.970947 391.579132,308.832611 
	C393.420898,311.041870 394.981018,312.968933 392.025208,315.468872 
	C388.514008,318.438538 385.019348,318.573547 382.602875,315.509552 
	C378.818390,310.710999 375.140472,305.828339 371.196075,300.693115 
	C369.743317,301.894043 368.668610,302.782410 367.310059,303.905457 
	C371.802612,309.822510 376.098358,315.480316 380.451660,321.213959 
	C378.084961,325.114899 374.470215,326.621674 371.064758,324.690552 
	C368.082153,322.999268 366.130066,319.490631 363.495331,316.529205 
	C362.241302,317.406250 361.086273,318.214081 359.711243,319.175781 
	C361.444672,321.677399 363.006226,323.931000 365.395508,327.379181 
	C361.024933,327.641968 357.658569,327.844360 353.831757,328.074463 
	C355.185944,323.741547 357.267456,320.377502 356.978821,317.230865 
	C356.548340,312.538391 352.291412,312.445099 348.083405,313.234192 
	C347.902588,308.333008 348.748444,303.148682 342.039673,301.844421 
	C335.809326,300.633179 335.028961,307.584442 330.662659,309.356049 
	C329.435577,301.257355 328.919617,300.972382 320.514618,299.953888 
	C318.980530,299.767975 317.148163,298.104156 316.335724,296.634766 
	C313.806824,292.061096 310.869965,290.532410 305.780518,291.589050 
	C303.719116,292.017059 301.576935,292.056091 298.725555,292.348633 
	C299.085510,288.909485 299.340851,286.021271 299.697510,283.145630 
	C300.782410,274.398254 302.026581,265.668304 302.945923,256.904022 
	C303.242340,254.078308 304.083923,252.970749 307.097687,252.721649 
	C315.362000,252.038544 323.593872,250.944626 331.828674,249.932861 
	C334.515106,249.602798 336.340607,250.134476 338.054474,252.658798 
	C341.488403,257.716400 346.830475,258.768707 351.986145,255.365784 
	C354.488098,253.714401 356.184540,254.126480 358.724792,255.001282 
	C370.894226,259.191986 378.061218,269.061768 385.893433,278.224762 
	C391.292603,284.541321 396.776276,290.787628 402.065277,297.194885 
	C403.419189,298.835052 405.482513,302.081268 404.977142,302.672455 
	C403.121796,304.842926 400.322540,306.206482 397.561432,307.684448 
z"/>
<path fill="#F9FEFE" opacity="1.000000" stroke="none" 
	d="
M426.079163,252.841980 
	C429.362762,269.358246 432.583130,285.444000 435.909851,302.061035 
	C433.279236,302.306427 430.865601,302.717926 428.465759,302.649048 
	C427.681702,302.626556 426.403442,301.454803 426.247131,300.637360 
	C423.076447,284.053986 420.036163,267.445679 416.939362,250.677841 
	C419.622833,249.888626 421.991577,249.191971 424.921753,248.330200 
	C425.293365,249.716354 425.654633,251.063904 426.079163,252.841980 
z"/>
<path fill="#FBFEFE" opacity="1.000000" stroke="none" 
	d="
M290.000244,254.156006 
	C290.486420,250.788193 290.950195,247.863480 291.495453,244.424850 
	C294.343689,245.001892 296.869995,245.513733 299.845856,246.116638 
	C297.630615,263.687317 295.457367,280.924713 293.239349,298.517426 
	C290.075104,298.517426 287.182465,298.517426 283.941345,298.517426 
	C285.957550,283.848389 287.967682,269.223755 290.000244,254.156006 
z"/>
<path fill="#FFFFFF" opacity="1.000000" stroke="none" 
	d="
M311.688721,303.631470 
	C312.132019,303.303040 312.767731,303.202576 313.403473,303.102081 
	C313.213226,303.441986 313.022980,303.781921 312.550659,304.217529 
	C312.139465,304.161957 312.010315,304.010712 311.688721,303.631470 
z"/>
<path fill="#FFFFFF" opacity="1.000000" stroke="none" 
	d="
M326.627411,313.572571 
	C326.555969,314.230499 326.085388,314.637573 325.614807,315.044617 
	C325.819305,314.470306 326.023804,313.896027 326.627411,313.572571 
z"/>
<path fill="#FDFFFF" opacity="1.000000" stroke="none" 
	d="
M579.704346,440.105835 
	C576.654175,440.157684 574.060547,440.157684 571.241150,440.157684 
	C571.241150,427.901306 571.241150,416.140625 571.241150,403.821075 
	C578.791382,402.809357 586.355896,402.544189 592.003174,408.509735 
	C597.796509,414.629486 598.017578,422.457001 595.367371,430.043762 
	C592.957703,436.941986 587.244324,439.768921 579.704346,440.105835 
z"/>
</svg>