<svg version="1.1" id="Layer_1" xmlns="http://www.w3.org/2000/svg" xmlns:xlink="http://www.w3.org/1999/xlink" x="0px" y="0px"
	 width="100%" viewBox="0 0 720 719" enable-background="new 0 0 720 719" xml:space="preserve">
<path fill="#019FA3" opacity="1.000000" stroke="none" 
	d="
M81.380722,142.423264 
	C95.505592,127.203781 109.004341,111.859909 123.491310,97.513954 
	C131.609970,89.474319 141.359528,83.080170 150.385178,75.958458 
	C155.186676,72.169823 160.013443,68.413223 164.821884,64.633377 
	C165.212830,64.326057 165.506439,63.718445 165.918869,63.640694 
	C177.076218,61.537094 183.331573,50.472301 194.771988,48.262241 
	C199.618073,47.326073 203.506714,42.150017 208.236694,39.678295 
	C212.288727,37.560848 216.947433,36.626541 221.288773,35.035130 
	C227.304428,32.829952 233.257980,30.455240 239.274216,28.251686 
	C240.910019,27.652542 242.710358,27.514610 244.373032,26.973869 
	C246.596207,26.250834 248.720444,25.212149 250.958145,24.548286 
	C253.232803,23.873465 255.571716,23.302320 257.922455,23.025927 
	C260.751404,22.693310 264.019684,23.784800 265.411102,19.894251 
	C265.573059,19.441395 266.818726,19.175772 267.567200,19.164322 
	C274.270782,19.061768 280.588348,18.063248 287.013367,15.456023 
	C292.304169,13.309049 298.676300,13.965521 304.497406,12.962656 
	C329.432800,8.666765 354.608734,8.141909 379.738831,9.223912 
	C395.264587,9.892390 410.710449,12.636385 426.165070,14.656019 
	C435.648590,15.895344 445.267883,16.815205 454.469910,19.233944 
	C460.518921,20.823923 466.838959,21.875423 472.513763,23.778835 
	C479.828430,26.232277 487.118011,28.946714 494.599915,31.058004 
	C495.627930,31.348082 496.421997,32.381699 497.420685,32.876690 
	C501.035889,34.668491 504.706635,36.347851 508.329590,38.124420 
	C514.016418,40.913044 519.673889,43.761494 525.358704,46.554234 
	C528.475586,48.085445 531.743347,49.348194 534.733459,51.091457 
	C542.650269,55.706978 550.663757,60.204597 558.262146,65.309555 
	C582.554077,81.629829 604.201660,101.105873 623.918396,122.623932 
	C639.341248,139.455780 653.116821,157.648972 664.703125,177.406158 
	C675.225891,195.349777 685.091125,213.666458 691.909851,233.347580 
	C695.514221,243.751053 698.910339,254.269897 701.702759,265.015625 
	C703.805969,273.109406 704.786011,280.833893 705.032227,288.933594 
	C705.051208,289.558960 705.148132,290.521729 705.539490,290.743042 
	C709.159363,292.790283 708.864807,296.242462 708.970337,299.621185 
	C709.286072,309.725525 707.701233,320.401642 710.453491,329.802002 
	C715.020508,345.400757 712.019043,360.848846 712.761902,376.310425 
	C713.062683,382.571472 710.768372,388.923004 710.044556,395.277740 
	C709.410339,400.846161 709.470337,406.490692 708.945862,412.075500 
	C708.499939,416.823547 707.671692,421.536438 706.987915,426.261292 
	C706.005798,433.048309 705.552429,439.969330 703.903198,446.591583 
	C698.880127,466.761597 692.038635,486.299744 683.395264,505.268005 
	C674.866577,523.984680 664.800903,541.782837 652.984497,558.527466 
	C645.144653,569.636963 636.636108,580.340759 627.697754,590.590271 
	C618.865051,600.718689 609.495483,610.453308 599.687195,619.640747 
	C580.948547,637.193359 560.749756,653.013855 538.063354,665.164124 
	C521.488464,674.041199 504.592743,682.488770 487.247437,689.702942 
	C473.892853,695.257202 459.693359,698.870361 445.711029,702.779663 
	C440.259216,704.303894 434.370667,704.254272 428.685913,704.960754 
	C423.450989,705.611389 418.239777,706.538696 412.987244,706.940552 
	C405.734131,707.495361 397.988220,706.193970 391.273895,708.301514 
	C374.641785,713.522217 357.855652,709.743896 341.205292,710.862488 
	C338.957184,711.013489 336.645050,709.529114 334.306122,709.150574 
	C329.146393,708.315613 323.967957,707.490051 318.764130,707.067566 
	C314.624725,706.731445 310.381561,707.418884 306.284515,706.884583 
	C301.865753,706.308411 297.574432,704.791870 293.204803,703.783813 
	C291.475555,703.384888 289.692291,703.110229 287.921417,703.021301 
	C281.143982,702.680908 274.549530,703.538757 267.964996,699.483521 
	C263.261597,696.586853 256.489777,697.303284 251.043900,695.307739 
	C237.087646,690.193787 222.907532,685.365967 209.649414,678.754333 
	C193.406540,670.654236 177.601074,661.490540 162.342407,651.646057 
	C138.037354,635.964905 117.316597,615.907349 97.611473,594.901123 
	C89.209000,585.943848 81.454910,576.291382 74.194069,566.377808 
	C68.391441,558.455017 63.717003,549.697327 58.660019,541.239502 
	C53.199051,532.106140 47.641743,523.017273 42.573051,513.666931 
	C39.127563,507.310944 36.099174,500.671265 33.541637,493.909790 
	C31.500971,488.514832 31.340576,482.282776 28.729794,477.262604 
	C25.759974,471.552094 26.803074,464.688416 24.255211,460.060272 
	C21.224581,454.555237 21.484364,449.590027 20.908478,444.197601 
	C20.692904,442.179016 19.469481,440.282410 18.826000,438.291260 
	C18.135162,436.153625 17.313297,434.006165 17.022505,431.800507 
	C15.821510,422.691040 14.758632,413.562592 13.724895,404.432068 
	C12.764047,395.945343 11.398664,387.463837 11.117219,378.950104 
	C10.676929,365.631317 10.285604,352.238708 11.189116,338.966919 
	C12.212766,323.930389 14.553123,308.974457 16.579617,294.018524 
	C17.837486,284.735260 19.558800,275.514221 21.122004,266.273682 
	C21.297539,265.236053 21.734644,264.225464 22.161993,263.251251 
	C23.065840,261.190796 24.607676,259.231171 24.865726,257.106079 
	C25.313477,253.418793 24.514648,249.504135 28.342402,246.985748 
	C28.761030,246.710327 28.988995,245.789017 28.933481,245.202469 
	C28.110683,236.509476 32.822433,229.874252 36.317699,222.513290 
	C38.102539,218.754440 38.772728,214.014923 40.920258,210.073975 
	C43.716778,204.942047 46.746223,199.936310 49.505047,194.785004 
	C50.413273,193.089188 50.554794,190.983719 51.457943,189.283981 
	C54.008965,184.482880 56.627911,179.705200 59.486992,175.083405 
	C63.861752,168.011490 68.390251,161.031509 72.990646,154.103577 
	C75.573975,150.213226 78.432991,146.505920 81.380722,142.423264 
M480.090851,650.649475 
	C537.601868,626.766907 584.523926,589.525208 619.839294,538.243469 
	C666.898499,469.908569 684.300110,394.230133 672.568542,312.234009 
	C664.565674,256.299591 642.136475,206.275116 606.755554,162.167847 
	C569.008850,115.111290 521.518188,81.682632 464.735291,61.512199 
	C423.507751,46.867336 380.990479,41.703720 337.380402,44.861961 
	C307.438965,47.030315 278.408081,53.268658 250.387527,63.976463 
	C194.257187,85.426170 147.327377,119.611603 111.053932,167.534424 
	C57.444435,238.360825 36.959366,318.258240 49.497662,406.125366 
	C57.455250,461.891296 79.604218,511.997314 115.229828,555.670471 
	C174.547134,628.387085 251.432831,667.878601 345.036896,673.640198 
	C391.357269,676.491333 436.328461,668.759827 480.090851,650.649475 
z"/>
<path fill="#FFFFFF" opacity="1.000000" stroke="none" 
	d="
M479.729858,650.782593 
	C436.328461,668.759827 391.357269,676.491333 345.036896,673.640198 
	C251.432831,667.878601 174.547134,628.387085 115.229828,555.670471 
	C79.604218,511.997314 57.455250,461.891296 49.497662,406.125366 
	C36.959366,318.258240 57.444435,238.360825 111.053932,167.534424 
	C147.327377,119.611603 194.257187,85.426170 250.387527,63.976463 
	C278.408081,53.268658 307.438965,47.030315 337.380402,44.861961 
	C380.990479,41.703720 423.507751,46.867336 464.735291,61.512199 
	C521.518188,81.682632 569.008850,115.111290 606.755554,162.167847 
	C642.136475,206.275116 664.565674,256.299591 672.568542,312.234009 
	C684.300110,394.230133 666.898499,469.908569 619.839294,538.243469 
	C584.523926,589.525208 537.601868,626.766907 479.729858,650.782593 
M315.880859,312.860138 
	C316.010406,313.012482 316.139984,313.164825 315.989258,313.937775 
	C316.563080,316.717163 316.253571,320.980164 317.898956,321.959839 
	C321.092316,323.861176 325.384186,323.917603 328.464294,324.576538 
	C328.901031,326.133209 328.873322,328.886139 330.234680,330.322235 
	C333.576538,333.847565 338.759003,334.072235 341.743378,332.263885 
	C343.951752,334.380127 345.579590,336.769745 347.837555,337.895721 
	C350.718842,339.332550 354.065460,340.069611 357.293060,340.509155 
	C360.186279,340.903137 363.222687,340.737640 366.136597,340.360626 
	C369.640625,339.907288 373.443634,339.669952 376.479187,338.103119 
	C384.060577,334.189941 391.334106,329.663849 398.611145,325.188538 
	C400.562225,323.988586 401.862701,321.698517 403.841675,320.582214 
	C409.891876,317.169403 412.528381,311.507874 409.944916,305.792389 
	C413.265839,304.852234 416.521179,303.930664 420.148254,302.903870 
	C421.117004,307.514008 421.989929,311.668121 422.670898,314.908813 
	C428.827545,316.018341 434.293793,317.904999 439.703156,317.753937 
	C446.729370,317.557709 453.710358,315.740753 460.676758,314.626831 
	C460.676758,290.196350 460.676758,266.166382 460.676758,241.809998 
	C459.502380,242.107407 458.698425,242.242477 457.942719,242.512527 
	C443.807556,247.563538 429.678589,252.631882 415.546509,257.691559 
	C414.484436,258.071808 413.408875,258.414520 412.326691,258.779053 
	C412.645721,261.562134 412.938965,264.120270 413.232330,266.679688 
	C400.778015,267.973480 394.184631,266.418915 383.015442,259.997131 
	C379.136322,257.766815 375.245880,254.741043 371.040161,254.061295 
	C361.897308,252.583588 352.357788,247.011719 343.367096,254.839996 
	C342.850739,255.289612 341.761139,255.082306 340.938019,255.177979 
	C330.723022,256.365295 320.508423,257.555786 310.290619,258.718414 
	C310.025360,258.748596 309.725281,258.472534 309.102295,258.180054 
	C309.102295,256.909180 309.102295,255.498291 309.102295,254.104019 
	C293.356445,249.157639 277.923676,244.309601 262.243958,239.383987 
	C262.243958,264.642792 262.243958,288.695740 262.243958,312.771942 
	C269.781769,313.487793 276.897583,314.182129 284.018402,314.821014 
	C285.155792,314.923096 287.112457,315.158905 287.339417,314.685425 
	C289.247406,310.704559 292.777191,312.578064 295.617950,312.176331 
	C297.696533,311.882324 299.819427,311.901398 301.795258,311.788208 
	C302.350037,309.871307 302.804169,308.302277 303.473785,305.988647 
	C307.603149,308.436188 309.789948,314.187805 315.880859,312.860138 
M399.839600,468.703705 
	C406.201050,479.648041 410.953217,481.662537 420.614136,477.503754 
	C420.614136,447.404694 420.614136,417.305664 420.614136,386.807678 
	C415.053375,386.807678 409.731445,386.807678 403.865143,386.807678 
	C403.865143,406.080353 403.865143,424.557587 403.865143,443.903076 
	C402.527161,441.966217 401.722900,440.920929 401.043152,439.800110 
	C391.311737,423.754242 381.647125,407.667450 371.813995,391.684296 
	C370.606567,389.721741 368.711090,387.184601 366.800476,386.856079 
	C362.555725,386.126190 358.099152,386.628510 353.743591,386.628510 
	C353.743591,417.678802 353.743591,447.772278 353.743591,478.437256 
	C359.220398,478.437256 364.421936,478.437256 370.227600,478.437256 
	C370.227600,459.243286 370.227600,440.603271 370.227600,420.650574 
	C380.460571,437.294739 389.934662,452.704498 399.839600,468.703705 
M437.989258,393.619202 
	C438.332672,412.929169 438.188995,432.264587 439.197723,451.539734 
	C439.827850,463.580841 445.592133,473.435669 457.718597,477.405243 
	C463.427979,479.274200 469.824463,479.834778 475.880829,479.699341 
	C491.731201,479.344879 502.431885,470.584259 504.885834,454.971802 
	C506.580383,444.190643 506.505280,433.099548 506.781281,422.135895 
	C507.074066,410.505493 506.847107,398.862000 506.847107,386.744385 
	C500.383331,386.744385 494.350830,386.744385 487.989258,386.744385 
	C487.989258,403.981750 488.079590,420.630676 487.932465,437.277496 
	C487.890015,442.083618 487.463959,446.932831 486.684845,451.675415 
	C485.403107,459.477264 480.148804,463.827972 472.712189,463.811859 
	C464.329620,463.793701 459.595184,460.055359 457.978302,451.974548 
	C457.459198,449.380188 457.073822,446.714081 457.037903,444.075256 
	C456.804474,426.919739 456.682800,409.762665 456.529114,392.606079 
	C456.513123,390.820709 456.526947,389.035065 456.526947,386.704102 
	C450.113037,386.704102 444.240814,386.704102 437.989288,386.704102 
	C437.989288,389.034546 437.989288,390.846069 437.989258,393.619202 
M570.883362,390.599121 
	C555.878052,382.238770 539.904968,386.092926 524.154419,386.303314 
	C524.154419,417.294495 524.154419,447.689728 524.154419,478.843140 
	C528.940552,478.843140 533.400146,478.757874 537.854736,478.869904 
	C541.488647,478.961273 542.727173,477.468201 542.606628,473.773865 
	C542.342224,465.674011 542.524719,457.559540 542.524719,449.151672 
	C560.556213,449.349426 577.778931,447.652924 583.178162,427.170898 
	C586.809448,413.395599 584.667969,399.380737 570.883362,390.599121 
M164.520538,462.465210 
	C161.441772,462.465210 158.363022,462.465210 155.376572,462.465210 
	C155.376572,453.945343 155.376572,446.220032 155.376572,438.128479 
	C164.178528,438.128479 172.626556,438.128479 181.620148,438.128479 
	C181.620148,432.879547 181.620148,428.005127 181.620148,422.399292 
	C172.684677,422.399292 163.987091,422.399292 155.307220,422.399292 
	C155.307220,415.410889 155.307220,409.152649 155.307220,402.440369 
	C166.354523,402.440369 177.118210,402.440369 188.254272,402.440369 
	C188.254272,397.015228 188.254272,392.060181 188.254272,387.180725 
	C170.610809,387.180725 153.729172,387.180725 136.765915,387.180725 
	C136.765915,417.623718 136.765915,447.698181 136.765915,477.948517 
	C154.333191,477.948517 171.599213,477.948517 189.235992,477.948517 
	C189.235992,472.713470 189.235992,467.721283 189.235992,462.465302 
	C180.815277,462.465302 173.164383,462.465302 164.520538,462.465210 
M304.527466,453.500427 
	C304.527466,448.553833 304.527466,443.607239 304.527466,438.142487 
	C313.721619,438.142487 322.317535,438.142487 331.237457,438.142487 
	C331.237457,432.703796 331.237457,427.792908 331.237457,422.285583 
	C322.071075,422.285583 313.495392,422.285583 304.894409,422.285583 
	C304.894409,415.451782 304.894409,409.220612 304.894409,402.561279 
	C316.032959,402.561279 326.814911,402.561279 338.031189,402.561279 
	C338.031189,397.116608 338.031189,392.110382 338.031189,387.216858 
	C320.291901,387.216858 303.243225,387.216858 286.304260,387.216858 
	C286.304260,417.702759 286.304260,447.788757 286.304260,477.846313 
	C304.031342,477.846313 321.441040,477.846313 338.939911,477.846313 
	C338.939911,472.613800 338.939911,467.714111 338.939911,462.333588 
	C327.279602,462.333588 316.184631,462.333588 304.527435,462.333588 
	C304.527435,459.400818 304.527435,456.949249 304.527466,453.500427 
M241.994644,439.337097 
	C240.240967,445.397003 238.487289,451.456879 236.558975,458.120239 
	C235.950211,456.552124 235.456482,455.540741 235.158646,454.474670 
	C229.191345,433.115173 223.263626,411.744537 217.254639,390.396820 
	C216.897400,389.127655 216.047379,387.112976 215.218399,387.002075 
	C209.110367,386.184967 202.906662,384.991241 196.495468,387.529297 
	C204.960144,413.764557 213.361694,439.538574 221.577194,465.371765 
	C226.127518,479.679993 225.982590,479.604431 240.685333,479.035706 
	C244.787964,478.877014 246.832840,477.404114 248.092453,473.409241 
	C255.231400,450.768311 262.647980,428.214996 269.926880,405.617981 
	C271.881073,399.551178 273.684509,393.435760 275.904877,386.211334 
	C270.542206,386.211334 266.100250,386.212250 261.658295,386.211060 
	C258.076508,386.210083 256.227875,387.713226 255.239105,391.469604 
	C251.093979,407.217041 246.554810,422.860718 241.994644,439.337097 
z"/>
<path fill="#06A1A5" opacity="1.000000" stroke="none" 
	d="
M315.494171,312.401428 
	C309.789948,314.187805 307.603149,308.436188 303.473785,305.988647 
	C302.804169,308.302277 302.350037,309.871307 301.795258,311.788208 
	C299.819427,311.901398 297.696533,311.882324 295.617950,312.176331 
	C292.777191,312.578064 289.247406,310.704559 287.339417,314.685425 
	C287.112457,315.158905 285.155792,314.923096 284.018402,314.821014 
	C276.897583,314.182129 269.781769,313.487793 262.243958,312.771942 
	C262.243958,288.695740 262.243958,264.642792 262.243958,239.383987 
	C277.923676,244.309601 293.356445,249.157639 309.102295,254.104019 
	C309.102295,255.498291 309.102295,256.909180 309.102295,258.180054 
	C309.725281,258.472534 310.025360,258.748596 310.290619,258.718414 
	C320.508423,257.555786 330.723022,256.365295 340.938019,255.177979 
	C341.761139,255.082306 342.850739,255.289612 343.367096,254.839996 
	C352.357788,247.011719 361.897308,252.583588 371.040161,254.061295 
	C375.245880,254.741043 379.136322,257.766815 383.015442,259.997131 
	C394.184631,266.418915 400.778015,267.973480 413.232330,266.679688 
	C412.938965,264.120270 412.645721,261.562134 412.326691,258.779053 
	C413.408875,258.414520 414.484436,258.071808 415.546509,257.691559 
	C429.678589,252.631882 443.807556,247.563538 457.942719,242.512527 
	C458.698425,242.242477 459.502380,242.107407 460.676758,241.809998 
	C460.676758,266.166382 460.676758,290.196350 460.676758,314.626831 
	C453.710358,315.740753 446.729370,317.557709 439.703156,317.753937 
	C434.293793,317.904999 428.827545,316.018341 422.670898,314.908813 
	C421.989929,311.668121 421.117004,307.514008 420.148254,302.903870 
	C416.521179,303.930664 413.265839,304.852234 409.944916,305.792389 
	C412.528381,311.507874 409.891876,317.169403 403.841675,320.582214 
	C401.862701,321.698517 400.562225,323.988586 398.611145,325.188538 
	C391.334106,329.663849 384.060577,334.189941 376.479187,338.103119 
	C373.443634,339.669952 369.640625,339.907288 366.136597,340.360626 
	C363.222687,340.737640 360.186279,340.903137 357.293060,340.509155 
	C354.065460,340.069611 350.718842,339.332550 347.837555,337.895721 
	C345.579590,336.769745 343.951752,334.380127 341.743378,332.263885 
	C338.759003,334.072235 333.576538,333.847565 330.234680,330.322235 
	C328.873322,328.886139 328.901031,326.133209 328.464294,324.576538 
	C325.384186,323.917603 321.092316,323.861176 317.898956,321.959839 
	C316.253571,320.980164 316.563080,316.717163 316.419495,313.530579 
	C317.047729,312.776917 317.245697,312.430450 317.443665,312.084045 
	C316.793823,312.189850 316.144012,312.295654 315.494171,312.401428 
M350.877777,322.904541 
	C353.247162,322.835785 356.385223,321.761261 357.847717,322.879059 
	C363.100616,326.893890 357.174652,330.703583 356.565735,335.906464 
	C360.251740,335.669098 363.515625,335.458954 367.656403,335.192322 
	C365.274506,331.943756 363.721741,329.825989 362.081146,327.588470 
	C363.376221,326.589813 364.502167,325.721588 365.723267,324.779999 
	C368.174133,327.660614 369.949921,331.099915 372.770477,332.718109 
	C376.239807,334.708557 379.733978,332.975647 382.122925,329.461823 
	C377.816681,323.792389 373.636139,318.288452 369.290741,312.567505 
	C370.861572,311.530334 372.023132,310.763428 373.307098,309.915680 
	C377.124634,314.879272 380.734436,319.432343 384.185486,324.102722 
	C387.120453,328.074738 390.024323,325.839020 392.775482,324.113678 
	C395.928436,322.136383 394.902039,320.147186 392.810364,317.704498 
	C387.205292,311.158875 381.904541,304.352661 376.276062,297.394196 
	C377.670624,296.289429 378.769379,295.419006 380.085052,294.376740 
	C385.648590,301.209259 391.121246,307.658295 396.260773,314.362671 
	C398.646210,317.474365 400.763275,317.260590 403.235565,314.907593 
	C405.329376,312.914856 407.235016,311.197021 404.237610,307.984039 
	C398.689941,302.037476 393.728577,295.548950 388.348114,289.440247 
	C380.410553,280.428314 373.576080,270.172333 361.290039,266.049438 
	C358.772888,265.204742 357.000397,264.687531 354.501678,266.133514 
	C349.010559,269.311127 345.116943,268.241119 341.003296,263.358948 
	C340.060913,262.240509 338.390106,260.883057 337.169464,260.986908 
	C327.482605,261.810791 317.823486,262.961182 308.183929,264.008270 
	C306.600464,276.749542 305.094788,288.864624 303.503387,301.669586 
	C306.279144,301.419708 308.237366,301.455597 310.092194,301.035400 
	C315.014221,299.920349 318.375916,301.440582 320.693817,306.060089 
	C321.394653,307.456818 323.460876,308.852722 325.028351,309.013336 
	C332.325806,309.761169 333.480225,310.677094 334.242401,318.593506 
	C336.035370,316.684174 337.346436,315.063721 338.892151,313.711517 
	C340.175262,312.589050 341.810242,310.914001 343.154724,311.031006 
	C345.405426,311.226807 348.885406,312.166107 349.437439,313.674652 
	C350.363129,316.204163 349.394653,319.426819 348.827545,322.761536 
	C348.756531,323.122009 348.685547,323.482452 348.614563,323.842926 
	C349.177948,323.666443 349.741333,323.489960 350.877777,322.904541 
M433.883423,303.646820 
	C430.925507,288.922943 427.967621,274.199097 424.973328,259.294098 
	C422.066650,260.165619 419.617157,260.900055 416.995392,261.686157 
	C420.120667,278.405121 423.183228,294.788727 426.243317,311.158875 
	C429.367218,311.158875 432.085175,311.158875 435.141693,311.158875 
	C434.718536,308.671417 434.362793,306.580292 433.883423,303.646820 
M301.359131,283.698303 
	C302.207123,277.102509 303.049896,270.506042 303.904449,263.911102 
	C304.859955,256.536560 304.554626,256.198486 296.396332,256.246857 
	C294.080994,273.248901 291.756287,290.319550 289.400269,307.620361 
	C292.596771,307.620361 295.321716,307.620361 298.332153,307.620361 
	C299.300842,299.723145 300.230011,292.148010 301.359131,283.698303 
M330.807037,322.793213 
	C330.356812,322.559113 329.906586,322.325012 329.456360,322.090912 
	C329.337341,322.495239 329.218292,322.899597 329.099243,323.303894 
	C329.465668,323.373535 329.832062,323.443146 330.807037,322.793213 
z"/>
<path fill="#07A2A6" opacity="1.000000" stroke="none" 
	d="
M399.624146,468.408997 
	C389.934662,452.704498 380.460571,437.294739 370.227600,420.650574 
	C370.227600,440.603271 370.227600,459.243286 370.227600,478.437256 
	C364.421936,478.437256 359.220398,478.437256 353.743591,478.437256 
	C353.743591,447.772278 353.743591,417.678802 353.743591,386.628510 
	C358.099152,386.628510 362.555725,386.126190 366.800476,386.856079 
	C368.711090,387.184601 370.606567,389.721741 371.813995,391.684296 
	C381.647125,407.667450 391.311737,423.754242 401.043152,439.800110 
	C401.722900,440.920929 402.527161,441.966217 403.865143,443.903076 
	C403.865143,424.557587 403.865143,406.080353 403.865143,386.807678 
	C409.731445,386.807678 415.053375,386.807678 420.614136,386.807678 
	C420.614136,417.305664 420.614136,447.404694 420.607239,477.504059 
	C410.953217,481.662537 406.201050,479.648041 399.624146,468.408997 
z"/>
<path fill="#06A1A5" opacity="1.000000" stroke="none" 
	d="
M437.989258,393.138397 
	C437.989288,390.846069 437.989288,389.034546 437.989288,386.704102 
	C444.240814,386.704102 450.113037,386.704102 456.526947,386.704102 
	C456.526947,389.035065 456.513123,390.820709 456.529114,392.606079 
	C456.682800,409.762665 456.804474,426.919739 457.037903,444.075256 
	C457.073822,446.714081 457.459198,449.380188 457.978302,451.974548 
	C459.595184,460.055359 464.329620,463.793701 472.712189,463.811859 
	C480.148804,463.827972 485.403107,459.477264 486.684845,451.675415 
	C487.463959,446.932831 487.890015,442.083618 487.932465,437.277496 
	C488.079590,420.630676 487.989258,403.981750 487.989258,386.744385 
	C494.350830,386.744385 500.383331,386.744385 506.847107,386.744385 
	C506.847107,398.862000 507.074066,410.505493 506.781281,422.135895 
	C506.505280,433.099548 506.580383,444.190643 504.885834,454.971802 
	C502.431885,470.584259 491.731201,479.344879 475.880829,479.699341 
	C469.824463,479.834778 463.427979,479.274200 457.718597,477.405243 
	C445.592133,473.435669 439.827850,463.580841 439.197723,451.539734 
	C438.188995,432.264587 438.332672,412.929169 437.989258,393.138397 
z"/>
<path fill="#05A1A5" opacity="1.000000" stroke="none" 
	d="
M571.222046,390.737366 
	C584.667969,399.380737 586.809448,413.395599 583.178162,427.170898 
	C577.778931,447.652924 560.556213,449.349426 542.524719,449.151672 
	C542.524719,457.559540 542.342224,465.674011 542.606628,473.773865 
	C542.727173,477.468201 541.488647,478.961273 537.854736,478.869904 
	C533.400146,478.757874 528.940552,478.843140 524.154419,478.843140 
	C524.154419,447.689728 524.154419,417.294495 524.154419,386.303314 
	C539.904968,386.092926 555.878052,382.238770 571.222046,390.737366 
M542.519714,407.536041 
	C542.520447,414.841034 542.403992,422.149506 542.621033,429.448090 
	C542.664429,430.906189 543.674011,433.253418 544.759766,433.612335 
	C551.337219,435.786530 560.660095,431.774445 563.401489,425.632904 
	C566.442078,418.821167 566.353088,411.929535 561.542603,405.961945 
	C556.610596,399.843536 549.611938,400.809113 542.519775,401.012390 
	C542.519775,403.260040 542.519775,404.904114 542.519714,407.536041 
z"/>
<path fill="#08A2A6" opacity="1.000000" stroke="none" 
	d="
M165.017014,462.465271 
	C173.164383,462.465302 180.815277,462.465302 189.235992,462.465302 
	C189.235992,467.721283 189.235992,472.713470 189.235992,477.948517 
	C171.599213,477.948517 154.333191,477.948517 136.765915,477.948517 
	C136.765915,447.698181 136.765915,417.623718 136.765915,387.180725 
	C153.729172,387.180725 170.610809,387.180725 188.254272,387.180725 
	C188.254272,392.060181 188.254272,397.015228 188.254272,402.440369 
	C177.118210,402.440369 166.354523,402.440369 155.307220,402.440369 
	C155.307220,409.152649 155.307220,415.410889 155.307220,422.399292 
	C163.987091,422.399292 172.684677,422.399292 181.620148,422.399292 
	C181.620148,428.005127 181.620148,432.879547 181.620148,438.128479 
	C172.626556,438.128479 164.178528,438.128479 155.376572,438.128479 
	C155.376572,446.220032 155.376572,453.945343 155.376572,462.465210 
	C158.363022,462.465210 161.441772,462.465210 165.017014,462.465271 
z"/>
<path fill="#06A1A5" opacity="1.000000" stroke="none" 
	d="
M304.527466,453.999054 
	C304.527435,456.949249 304.527435,459.400818 304.527435,462.333588 
	C316.184631,462.333588 327.279602,462.333588 338.939911,462.333588 
	C338.939911,467.714111 338.939911,472.613800 338.939911,477.846313 
	C321.441040,477.846313 304.031342,477.846313 286.304260,477.846313 
	C286.304260,447.788757 286.304260,417.702759 286.304260,387.216858 
	C303.243225,387.216858 320.291901,387.216858 338.031189,387.216858 
	C338.031189,392.110382 338.031189,397.116608 338.031189,402.561279 
	C326.814911,402.561279 316.032959,402.561279 304.894409,402.561279 
	C304.894409,409.220612 304.894409,415.451782 304.894409,422.285583 
	C313.495392,422.285583 322.071075,422.285583 331.237457,422.285583 
	C331.237457,427.792908 331.237457,432.703796 331.237457,438.142487 
	C322.317535,438.142487 313.721619,438.142487 304.527466,438.142487 
	C304.527466,443.607239 304.527466,448.553833 304.527466,453.999054 
z"/>
<path fill="#06A1A5" opacity="1.000000" stroke="none" 
	d="
M242.077301,438.939758 
	C246.554810,422.860718 251.093979,407.217041 255.239105,391.469604 
	C256.227875,387.713226 258.076508,386.210083 261.658295,386.211060 
	C266.100250,386.212250 270.542206,386.211334 275.904877,386.211334 
	C273.684509,393.435760 271.881073,399.551178 269.926880,405.617981 
	C262.647980,428.214996 255.231400,450.768311 248.092453,473.409241 
	C246.832840,477.404114 244.787964,478.877014 240.685333,479.035706 
	C225.982590,479.604431 226.127518,479.679993 221.577194,465.371765 
	C213.361694,439.538574 204.960144,413.764557 196.495468,387.529297 
	C202.906662,384.991241 209.110367,386.184967 215.218399,387.002075 
	C216.047379,387.112976 216.897400,389.127655 217.254639,390.396820 
	C223.263626,411.744537 229.191345,433.115173 235.158646,454.474670 
	C235.456482,455.540741 235.950211,456.552124 236.558975,458.120239 
	C238.487289,451.456879 240.240967,445.397003 242.077301,438.939758 
z"/>
<path fill="#FEFFFF" opacity="1.000000" stroke="none" 
	d="
M349.223267,322.357819 
	C349.394653,319.426819 350.363129,316.204163 349.437439,313.674652 
	C348.885406,312.166107 345.405426,311.226807 343.154724,311.031006 
	C341.810242,310.914001 340.175262,312.589050 338.892151,313.711517 
	C337.346436,315.063721 336.035370,316.684174 334.242401,318.593506 
	C333.480225,310.677094 332.325806,309.761169 325.028351,309.013336 
	C323.460876,308.852722 321.394653,307.456818 320.693817,306.060089 
	C318.375916,301.440582 315.014221,299.920349 310.092194,301.035400 
	C308.237366,301.455597 306.279144,301.419708 303.503387,301.669586 
	C305.094788,288.864624 306.600464,276.749542 308.183929,264.008270 
	C317.823486,262.961182 327.482605,261.810791 337.169464,260.986908 
	C338.390106,260.883057 340.060913,262.240509 341.003296,263.358948 
	C345.116943,268.241119 349.010559,269.311127 354.501678,266.133514 
	C357.000397,264.687531 358.772888,265.204742 361.290039,266.049438 
	C373.576080,270.172333 380.410553,280.428314 388.348114,289.440247 
	C393.728577,295.548950 398.689941,302.037476 404.237610,307.984039 
	C407.235016,311.197021 405.329376,312.914856 403.235565,314.907593 
	C400.763275,317.260590 398.646210,317.474365 396.260773,314.362671 
	C391.121246,307.658295 385.648590,301.209259 380.085052,294.376740 
	C378.769379,295.419006 377.670624,296.289429 376.276062,297.394196 
	C381.904541,304.352661 387.205292,311.158875 392.810364,317.704498 
	C394.902039,320.147186 395.928436,322.136383 392.775482,324.113678 
	C390.024323,325.839020 387.120453,328.074738 384.185486,324.102722 
	C380.734436,319.432343 377.124634,314.879272 373.307098,309.915680 
	C372.023132,310.763428 370.861572,311.530334 369.290741,312.567505 
	C373.636139,318.288452 377.816681,323.792389 382.122925,329.461823 
	C379.733978,332.975647 376.239807,334.708557 372.770477,332.718109 
	C369.949921,331.099915 368.174133,327.660614 365.723267,324.779999 
	C364.502167,325.721588 363.376221,326.589813 362.081146,327.588470 
	C363.721741,329.825989 365.274506,331.943756 367.656403,335.192322 
	C363.515625,335.458954 360.251740,335.669098 356.565735,335.906464 
	C357.174652,330.703583 363.100616,326.893890 357.847717,322.879059 
	C356.385223,321.761261 353.247162,322.835785 350.322052,322.868774 
	C349.585327,322.674622 349.404297,322.516235 349.223267,322.357819 
z"/>
<path fill="#F4FBFB" opacity="1.000000" stroke="none" 
	d="
M433.945251,304.067993 
	C434.362793,306.580292 434.718536,308.671417 435.141693,311.158875 
	C432.085175,311.158875 429.367218,311.158875 426.243317,311.158875 
	C423.183228,294.788727 420.120667,278.405121 416.995392,261.686157 
	C419.617157,260.900055 422.066650,260.165619 424.973328,259.294098 
	C427.967621,274.199097 430.925507,288.922943 433.945251,304.067993 
z"/>
<path fill="#FCFEFE" opacity="1.000000" stroke="none" 
	d="
M301.259155,284.135559 
	C300.230011,292.148010 299.300842,299.723145 298.332153,307.620361 
	C295.321716,307.620361 292.596771,307.620361 289.400269,307.620361 
	C291.756287,290.319550 294.080994,273.248901 296.396332,256.246857 
	C304.554626,256.198486 304.859955,256.536560 303.904449,263.911102 
	C303.049896,270.506042 302.207123,277.102509 301.259155,284.135559 
z"/>
<path fill="#FFFFFF" opacity="1.000000" stroke="none" 
	d="
M315.687500,312.630798 
	C316.144012,312.295654 316.793823,312.189850 317.443665,312.084045 
	C317.245697,312.430450 317.047729,312.776917 316.559631,313.220276 
	C316.139984,313.164825 316.010406,313.012482 315.687500,312.630798 
z"/>
<path fill="#FFFFFF" opacity="1.000000" stroke="none" 
	d="
M330.502747,323.153015 
	C329.832062,323.443146 329.465668,323.373535 329.099243,323.303894 
	C329.218292,322.899597 329.337341,322.495239 329.456360,322.090912 
	C329.906586,322.325012 330.356812,322.559113 330.502747,323.153015 
z"/>
<path fill="#FEFFFF" opacity="1.000000" stroke="none" 
	d="
M350.035522,323.073242 
	C349.741333,323.489960 349.177948,323.666443 348.614563,323.842926 
	C348.685547,323.482452 348.756531,323.122009 349.025421,322.559692 
	C349.404297,322.516235 349.585327,322.674622 350.035522,323.073242 
z"/>
<path fill="#FDFEFE" opacity="1.000000" stroke="none" 
	d="
M542.519775,407.042114 
	C542.519775,404.904114 542.519775,403.260040 542.519775,401.012390 
	C549.611938,400.809113 556.610596,399.843536 561.542603,405.961945 
	C566.353088,411.929535 566.442078,418.821167 563.401489,425.632904 
	C560.660095,431.774445 551.337219,435.786530 544.759766,433.612335 
	C543.674011,433.253418 542.664429,430.906189 542.621033,429.448090 
	C542.403992,422.149506 542.520447,414.841034 542.519775,407.042114 
z"/>
</svg>