<svg version="1.1" id="Layer_1" xmlns="http://www.w3.org/2000/svg" xmlns:xlink="http://www.w3.org/1999/xlink" x="0px" y="0px"
	 width="100%" viewBox="0 0 731 723" enable-background="new 0 0 731 723" xml:space="preserve">
<path fill="#27CBCF" opacity="1.000000" stroke="none" 
	d="
M62.274090,182.323242 
	C72.374443,165.697067 82.832291,149.774155 95.828835,135.723099 
	C107.301842,123.319199 118.343491,110.394997 130.826126,99.080101 
	C143.495926,87.595566 157.466278,77.484093 171.314407,67.384689 
	C179.445663,61.454586 188.278229,56.409691 197.115891,51.549515 
	C203.810989,47.867607 211.349182,45.663071 217.860291,41.723633 
	C221.636780,39.438732 225.162918,38.458588 229.363190,37.697849 
	C232.989182,37.041130 236.098221,33.817356 239.593063,32.037189 
	C241.559341,31.035629 243.805771,30.356009 245.995224,30.079500 
	C248.618729,29.748175 251.316055,30.001265 254.319366,30.001265 
	C254.733597,28.741333 255.154999,27.459562 255.617157,26.053802 
	C259.182800,26.053802 262.665833,26.053802 266.533234,26.053802 
	C266.469055,22.285248 268.636810,21.873110 271.832703,21.902601 
	C278.714386,21.966105 285.531738,22.559715 292.056213,18.389805 
	C295.126770,16.427364 300.115906,17.692099 304.136871,16.955252 
	C331.414490,11.956571 358.969543,11.110547 386.542969,12.185275 
	C399.901093,12.705934 413.182617,15.184911 426.499756,16.769268 
	C430.076141,17.194757 433.657959,17.575197 437.233826,18.004789 
	C441.072235,18.465918 444.621826,17.675554 448.642181,20.534908 
	C452.068909,22.972033 458.161469,21.839466 463.081146,21.927908 
	C465.775055,21.976339 467.774689,22.140148 466.979309,26.001076 
	C470.493713,26.001076 473.686646,25.620573 476.731598,26.128105 
	C478.947754,26.497498 480.976318,28.023804 483.069214,29.072824 
	C483.457306,29.267349 483.761658,29.909143 484.090729,29.898865 
	C488.695984,29.755016 492.449890,32.390110 496.500305,33.566612 
	C515.635803,39.124676 532.758118,48.664165 549.289795,59.113125 
	C565.088379,69.098640 580.573914,79.856316 594.878418,91.847580 
	C608.155029,102.977165 620.235107,115.695290 631.830688,128.621277 
	C642.392578,140.395035 652.275513,152.918518 661.260620,165.937668 
	C681.422302,195.151367 696.295288,227.084610 706.380371,261.091705 
	C709.453918,271.455841 710.486389,282.425293 712.604309,293.936127 
	C712.411682,293.905609 713.606445,294.095001 714.999573,294.315887 
	C714.999573,302.303436 714.880432,309.954559 715.043213,317.599731 
	C715.144714,322.367157 714.156189,328.002380 716.304749,331.716461 
	C721.798157,341.212738 718.081787,350.985962 718.823486,360.535126 
	C719.608337,370.639984 719.162231,380.858002 718.862427,391.015045 
	C718.801392,393.082672 716.267517,395.049408 716.125488,397.147430 
	C715.499878,406.385834 715.402100,415.658630 714.963806,424.911865 
	C714.799683,428.377960 716.339661,432.610504 711.403931,434.401367 
	C711.087891,434.516052 710.987183,435.626373 711.026123,436.258759 
	C711.937012,451.066101 706.056213,464.387939 701.447144,477.858459 
	C692.364136,504.404175 680.471985,529.729309 664.474548,552.842957 
	C654.643677,567.046997 644.275757,580.969421 633.117798,594.144836 
	C613.993774,616.726624 591.935669,636.192566 567.618591,653.179749 
	C536.955688,674.599854 503.661865,690.441101 468.011230,701.391846 
	C459.658264,703.957581 451.264130,707.119629 442.149353,706.099060 
	C441.159637,705.988220 440.075439,707.397705 438.932587,707.832825 
	C436.765564,708.657959 434.543274,709.821899 432.310333,709.901428 
	C424.986847,710.162231 417.637238,709.758057 410.319794,710.093079 
	C406.145233,710.284180 401.394287,709.228943 398.270599,713.673767 
	C397.850220,714.271912 396.070129,713.987488 394.919586,713.988525 
	C377.587585,714.004272 360.255249,714.046631 342.924347,713.907288 
	C341.578369,713.896545 340.277222,712.499268 338.890900,711.893738 
	C337.913208,711.466797 336.827759,711.043091 335.788361,711.037964 
	C323.860718,710.978943 311.932678,711.000427 299.997711,711.000427 
	C299.264038,708.736145 298.848572,707.453979 298.542847,706.510437 
	C291.870605,705.993042 285.238831,706.421814 279.122314,704.847900 
	C245.442459,696.181519 213.696869,682.886230 183.976913,664.638855 
	C166.087448,653.655151 149.386703,641.257935 133.732193,627.306641 
	C112.002213,607.940857 92.563889,586.635437 75.848145,562.737000 
	C63.562298,545.171997 53.415760,526.471863 44.160904,507.244995 
	C41.822742,502.387543 41.436745,496.516602 38.769932,491.912933 
	C36.338963,487.716370 34.516228,483.818024 34.931217,478.992676 
	C28.007578,474.974609 32.499214,468.043243 30.446012,462.280518 
	C29.640312,462.121002 28.436615,461.882690 27.000433,461.598358 
	C27.000433,457.270111 27.134296,453.119690 26.953079,448.983032 
	C26.833506,446.253540 27.529425,443.042816 23.722187,441.732758 
	C23.189497,441.549500 23.149055,439.717926 23.013042,438.632751 
	C21.366894,425.499176 19.646557,412.373627 18.163750,399.221375 
	C17.517979,393.493530 17.138716,387.712830 17.050493,381.949799 
	C16.879601,370.786621 16.877148,359.617279 17.028893,348.453552 
	C17.267887,330.870819 19.530113,313.511322 22.808201,296.241058 
	C24.903711,285.201080 26.372007,274.042084 28.187233,262.519135 
	C34.866478,260.845001 28.878038,254.318100 31.844885,250.202927 
	C32.421928,250.103775 33.619698,249.897964 35.091751,249.645020 
	C35.091751,245.855484 33.866856,241.674026 35.367001,239.051178 
	C37.875530,234.665329 37.251160,228.511063 42.566216,225.686844 
	C42.864296,225.528442 42.945663,224.790146 42.969883,224.313721 
	C43.499958,213.887817 50.101910,206.140305 54.708160,197.499420 
	C57.307190,192.623856 59.618755,187.595047 62.274090,182.323242 
M438.423706,668.936768 
	C484.685242,657.928284 526.484070,637.743530 563.589111,607.957031 
	C611.335693,569.627930 645.118225,521.433960 665.189636,463.631012 
	C679.206787,423.263672 684.156189,381.722107 681.187500,339.137238 
	C679.075439,308.841675 672.774780,279.477539 661.928711,251.140823 
	C640.443542,195.008194 606.268982,148.008575 558.215271,111.890327 
	C481.779419,54.439503 396.012085,34.820740 302.358978,53.762592 
	C232.980896,67.794693 174.980698,102.701286 128.689941,156.285202 
	C81.673286,210.709396 56.099571,274.201202 52.310890,345.990479 
	C49.202602,404.887482 61.943867,460.517883 90.248131,512.401306 
	C113.283234,554.625977 144.310455,589.904785 183.423935,617.878418 
	C226.201813,648.472778 273.621552,667.581787 325.919373,674.349487 
	C363.478333,679.209778 400.690155,677.535522 438.423706,668.936768 
z"/>
<path fill="#FFFFFF" opacity="1.000000" stroke="none" 
	d="
M438.012512,669.007935 
	C400.690155,677.535522 363.478333,679.209778 325.919373,674.349487 
	C273.621552,667.581787 226.201813,648.472778 183.423935,617.878418 
	C144.310455,589.904785 113.283234,554.625977 90.248131,512.401306 
	C61.943867,460.517883 49.202602,404.887482 52.310890,345.990479 
	C56.099571,274.201202 81.673286,210.709396 128.689941,156.285202 
	C174.980698,102.701286 232.980896,67.794693 302.358978,53.762592 
	C396.012085,34.820740 481.779419,54.439503 558.215271,111.890327 
	C606.268982,148.008575 640.443542,195.008194 661.928711,251.140823 
	C672.774780,279.477539 679.075439,308.841675 681.187500,339.137238 
	C684.156189,381.722107 679.206787,423.263672 665.189636,463.631012 
	C645.118225,521.433960 611.335693,569.627930 563.589111,607.957031 
	C526.484070,637.743530 484.685242,657.928284 438.012512,669.007935 
M321.885681,315.858795 
	C322.014404,316.009949 322.143158,316.161133 321.987946,316.927979 
	C322.569611,319.711243 322.248199,323.870636 323.931427,324.975189 
	C326.918396,326.935303 331.121674,327.041901 334.310669,327.803284 
	C334.776886,329.297791 334.813446,331.985107 336.174652,333.280701 
	C339.781982,336.714142 344.235809,337.232208 348.949158,334.826599 
	C348.847748,339.075623 351.632935,340.503662 355.093323,341.355255 
	C357.480011,341.942657 359.799194,343.071808 362.203033,343.259033 
	C365.770203,343.536926 369.405304,343.399261 372.974487,343.054962 
	C376.003845,342.762695 379.331940,342.586273 381.915253,341.209259 
	C389.721985,337.048035 397.270813,332.393311 404.826660,327.777863 
	C406.667328,326.653503 407.962524,324.608215 409.830872,323.562134 
	C415.867645,320.182037 418.409698,314.804138 416.130524,308.687408 
	C419.419769,307.791382 422.664276,306.907501 426.270172,305.925201 
	C426.946716,309.642242 427.386322,312.751373 428.129974,315.785980 
	C428.409119,316.925262 429.255463,318.662048 430.080597,318.810944 
	C435.237640,319.741455 440.502533,321.067261 445.653931,320.794373 
	C452.700165,320.421021 459.677032,318.738556 466.602325,317.630249 
	C466.602325,293.163879 466.602325,269.163086 466.602325,244.816879 
	C465.353424,245.154739 464.555969,245.313812 463.798065,245.583893 
	C449.770386,250.582855 435.746277,255.591858 421.725494,260.610229 
	C420.544922,261.032806 419.393616,261.537231 418.328674,261.963562 
	C418.639893,264.760895 418.907898,267.169617 419.225189,270.021484 
	C409.131531,269.942261 399.704407,270.007751 391.080505,264.204712 
	C382.899292,258.699585 373.968597,254.869598 363.728149,254.496155 
	C358.090179,254.290543 353.393738,255.996933 348.116638,257.565735 
	C337.807343,260.630554 326.569794,260.572876 315.471710,261.835815 
	C315.195221,259.969788 314.968628,258.440613 314.754211,256.993439 
	C299.147552,252.093811 283.849609,247.291122 268.130432,242.356186 
	C268.130432,267.554840 268.130432,291.472656 268.130432,315.730713 
	C275.982452,316.486725 283.562958,317.232513 291.148499,317.923370 
	C291.945282,317.995941 293.324860,317.991791 293.498016,317.604614 
	C295.105408,314.010345 298.266815,315.438263 300.865326,315.187073 
	C303.159698,314.965210 305.472534,314.934143 307.646301,314.825378 
	C308.321228,312.924988 308.906067,311.278198 309.874603,308.551056 
	C313.339294,312.568237 316.123444,316.672546 321.885681,315.858795 
M390.730164,415.768097 
	C386.242798,408.382965 381.850616,400.936981 377.195892,393.658905 
	C376.135773,392.001343 374.293457,389.994019 372.592865,389.764404 
	C368.420197,389.201050 364.120300,389.580200 359.447998,389.580200 
	C359.447998,400.390564 359.447845,410.363495 359.448029,420.336456 
	C359.448334,439.156555 359.395874,457.977081 359.545807,476.795990 
	C359.558411,478.373932 360.808044,481.213074 361.695557,481.300140 
	C366.342804,481.756104 371.058594,481.513153 376.291687,481.513153 
	C376.291687,462.022919 376.291687,443.544250 376.291687,423.792877 
	C387.298676,441.662048 397.987701,458.112366 407.640411,475.149780 
	C411.274170,481.563538 415.729248,482.408295 421.942902,481.968170 
	C425.742401,481.699066 426.964935,480.444275 426.941193,476.540039 
	C426.774170,449.060394 426.856506,421.579254 426.839386,394.098572 
	C426.838593,392.808319 426.650299,391.518158 426.506073,389.674988 
	C421.061035,389.674988 415.844086,389.674988 410.058044,389.674988 
	C410.058044,408.837708 410.058044,427.349884 410.058044,445.862061 
	C409.740723,445.936554 409.423370,446.011047 409.106049,446.085541 
	C403.112183,436.184174 397.118347,426.282837 390.730164,415.768097 
M493.989197,441.367462 
	C493.629425,445.509918 493.473541,449.682495 492.866913,453.788483 
	C491.642151,462.078522 486.687195,466.628326 479.072845,466.807098 
	C470.418518,467.010284 465.530182,463.035126 463.886230,454.305725 
	C463.426788,451.865997 463.057251,449.370239 463.025757,446.895355 
	C462.809784,429.906494 462.693024,412.916321 462.549194,395.926544 
	C462.532867,394.000702 462.546997,392.074585 462.546997,389.840302 
	C455.949158,389.840302 450.121735,389.840302 444.231079,389.840302 
	C444.231079,409.840881 443.875397,429.161987 444.433960,448.456635 
	C444.616730,454.770020 446.140350,461.508057 448.849213,467.195312 
	C456.087036,482.391052 480.897491,487.978058 497.066895,478.781464 
	C507.038086,473.110138 511.231689,463.858490 511.786682,453.123596 
	C512.602844,437.336243 512.563171,421.503845 512.835999,405.689697 
	C512.924561,400.556366 512.849915,395.420258 512.849915,389.806274 
	C506.344330,389.806274 500.337158,389.806274 493.989288,389.806274 
	C493.989288,407.106049 493.989288,423.751648 493.989197,441.367462 
M557.353455,452.016083 
	C562.687561,450.960480 568.371826,450.742828 573.288635,448.688477 
	C586.767273,443.057007 591.802124,431.934784 590.007263,413.961456 
	C588.805786,401.930206 580.508301,391.953766 567.487854,390.077911 
	C555.316956,388.324432 542.823914,388.807129 530.126343,388.291565 
	C530.126343,420.147583 530.126343,450.527466 530.126343,481.919708 
	C533.905396,481.919708 537.517273,482.006378 541.123596,481.901581 
	C548.541443,481.686035 548.542175,481.643921 548.544617,474.464996 
	C548.547119,467.178467 548.545166,459.891968 548.545166,452.044250 
	C551.512878,452.044250 553.961121,452.044250 557.353455,452.016083 
M186.385620,465.445251 
	C178.109695,465.445251 169.833771,465.445251 161.329315,465.445251 
	C161.329315,457.115967 161.329315,449.399902 161.329315,441.183563 
	C166.255234,441.183563 170.879745,441.183533 175.504257,441.183533 
	C189.468231,441.183563 189.946243,440.577728 187.180740,425.356934 
	C178.676453,425.356934 169.994095,425.356934 161.443542,425.356934 
	C161.443542,418.302948 161.443542,412.092621 161.443542,405.555054 
	C169.848633,405.555054 177.828232,405.555237 185.807831,405.555023 
	C195.311981,405.554810 195.476059,405.381653 194.996124,395.864014 
	C194.987732,395.697876 194.963089,395.531677 194.966660,395.365936 
	C195.052765,391.383636 193.700439,389.561127 189.134094,389.695404 
	C176.991516,390.052429 164.831528,389.816559 152.678452,389.816467 
	C149.418900,389.816437 146.159332,389.816437 142.781677,389.816437 
	C142.781677,420.610260 142.781677,450.666260 142.781677,480.892639 
	C160.364655,480.892639 177.609818,480.892639 195.166031,480.892639 
	C195.450287,478.687286 195.813934,476.733551 195.936630,474.764801 
	C196.484451,465.975159 195.974518,465.448730 186.385620,465.445251 
M297.610962,389.821289 
	C295.855133,389.821289 294.099335,389.821289 292.329346,389.821289 
	C292.329346,420.644165 292.329346,450.716125 292.329346,480.767578 
	C310.052917,480.767578 327.433014,480.767578 345.052979,480.767578 
	C345.052979,475.574341 345.052979,470.791138 345.052979,465.452454 
	C342.794373,465.452454 340.995789,465.452789 339.197205,465.452332 
	C331.030640,465.450287 322.861115,465.557373 314.700317,465.339447 
	C313.321320,465.302612 310.838409,463.916138 310.800568,463.067047 
	C310.484344,455.967957 310.620850,448.848724 310.620850,441.097412 
	C319.776947,441.097412 328.341492,441.097412 337.123383,441.097412 
	C337.123383,435.571106 337.123383,430.699951 337.123383,425.452332 
	C332.427887,425.452332 328.443848,425.452301 324.459808,425.452301 
	C310.459595,425.452301 310.637482,425.449921 310.445648,411.340942 
	C310.383881,406.800140 311.628387,405.266724 316.284882,405.445679 
	C325.390778,405.795715 334.519562,405.548431 344.103943,405.548431 
	C344.103943,400.060059 344.103943,395.183563 344.103943,389.821136 
	C328.513763,389.821136 313.549438,389.821136 297.610962,389.821289 
M273.707764,415.319763 
	C276.334167,407.016144 278.960571,398.712524 281.944794,389.277588 
	C276.339508,389.277588 271.737885,389.244171 267.137024,389.289154 
	C263.960815,389.320190 262.209198,390.689178 261.354828,394.065277 
	C258.826111,404.057800 255.877838,413.944183 253.089081,423.870789 
	C249.672668,436.031555 246.251648,448.191010 242.526566,461.439575 
	C241.793304,459.346100 241.418732,458.442902 241.158020,457.507935 
	C235.191101,436.109467 229.255753,414.702179 223.231125,393.320007 
	C222.877563,392.065216 221.866379,390.047821 221.086105,390.011780 
	C215.081085,389.734375 209.057495,389.859131 202.755966,389.859131 
	C203.030899,391.299225 203.087112,391.957336 203.283569,392.570496 
	C211.373550,417.819580 219.545441,443.042664 227.550232,468.318665 
	C232.103836,482.697205 231.977295,482.617828 246.696167,482.031616 
	C250.810577,481.867767 252.845062,480.362305 254.098495,476.363251 
	C260.410461,456.225128 267.006073,436.175903 273.707764,415.319763 
z"/>
<path fill="#2CCCD0" opacity="1.000000" stroke="none" 
	d="
M321.505920,315.399872 
	C316.123444,316.672546 313.339294,312.568237 309.874603,308.551056 
	C308.906067,311.278198 308.321228,312.924988 307.646301,314.825378 
	C305.472534,314.934143 303.159698,314.965210 300.865326,315.187073 
	C298.266815,315.438263 295.105408,314.010345 293.498016,317.604614 
	C293.324860,317.991791 291.945282,317.995941 291.148499,317.923370 
	C283.562958,317.232513 275.982452,316.486725 268.130432,315.730713 
	C268.130432,291.472656 268.130432,267.554840 268.130432,242.356186 
	C283.849609,247.291122 299.147552,252.093811 314.754211,256.993439 
	C314.968628,258.440613 315.195221,259.969788 315.471710,261.835815 
	C326.569794,260.572876 337.807343,260.630554 348.116638,257.565735 
	C353.393738,255.996933 358.090179,254.290543 363.728149,254.496155 
	C373.968597,254.869598 382.899292,258.699585 391.080505,264.204712 
	C399.704407,270.007751 409.131531,269.942261 419.225189,270.021484 
	C418.907898,267.169617 418.639893,264.760895 418.328674,261.963562 
	C419.393616,261.537231 420.544922,261.032806 421.725494,260.610229 
	C435.746277,255.591858 449.770386,250.582855 463.798065,245.583893 
	C464.555969,245.313812 465.353424,245.154739 466.602325,244.816879 
	C466.602325,269.163086 466.602325,293.163879 466.602325,317.630249 
	C459.677032,318.738556 452.700165,320.421021 445.653931,320.794373 
	C440.502533,321.067261 435.237640,319.741455 430.080597,318.810944 
	C429.255463,318.662048 428.409119,316.925262 428.129974,315.785980 
	C427.386322,312.751373 426.946716,309.642242 426.270172,305.925201 
	C422.664276,306.907501 419.419769,307.791382 416.130524,308.687408 
	C418.409698,314.804138 415.867645,320.182037 409.830872,323.562134 
	C407.962524,324.608215 406.667328,326.653503 404.826660,327.777863 
	C397.270813,332.393311 389.721985,337.048035 381.915253,341.209259 
	C379.331940,342.586273 376.003845,342.762695 372.974487,343.054962 
	C369.405304,343.399261 365.770203,343.536926 362.203033,343.259033 
	C359.799194,343.071808 357.480011,341.942657 355.093323,341.355255 
	C351.632935,340.503662 348.847748,339.075623 348.949158,334.826599 
	C344.235809,337.232208 339.781982,336.714142 336.174652,333.280701 
	C334.813446,331.985107 334.776886,329.297791 334.310669,327.803284 
	C331.121674,327.041901 326.918396,326.935303 323.931427,324.975189 
	C322.248199,323.870636 322.569611,319.711243 322.397125,316.525146 
	C322.941376,315.752563 323.076447,315.382812 323.211517,315.013031 
	C322.642975,315.141998 322.074463,315.270935 321.505920,315.399872 
M356.863647,325.899750 
	C359.121185,325.728119 362.066376,324.560272 363.515198,325.560333 
	C369.258087,329.524292 363.163330,333.651672 362.730255,338.906097 
	C366.318451,338.686127 369.499115,338.491119 373.581421,338.240845 
	C371.326630,335.075317 369.809723,332.945770 368.159363,330.628845 
	C369.375671,329.655121 370.475250,328.774841 371.692169,327.800629 
	C374.157135,330.662506 375.955048,334.082092 378.783173,335.693054 
	C382.247742,337.666412 385.731506,335.981415 388.099121,332.425507 
	C383.827362,326.813599 379.720032,321.417725 375.398651,315.740601 
	C376.763489,314.694214 377.869904,313.845978 379.214264,312.815277 
	C383.100342,317.862305 386.745819,322.586853 390.379974,327.320129 
	C393.182312,330.970032 396.041138,328.807373 398.646637,327.203033 
	C401.671387,325.340546 401.062988,323.316254 398.881287,320.778229 
	C393.263519,314.243011 387.968842,307.430084 382.303284,300.429352 
	C383.702698,299.318115 384.788910,298.455597 386.095276,297.418304 
	C391.797668,304.398895 397.345520,311.004089 402.662933,317.789856 
	C404.837524,320.565002 406.834595,320.087067 408.909973,318.103943 
	C410.855255,316.245178 413.497406,314.707764 410.415710,311.259491 
	C402.442993,302.338318 394.417389,293.416992 387.140076,283.937469 
	C381.742279,276.906250 374.904785,272.373383 366.995361,269.168518 
	C365.192841,268.438141 362.532318,268.453949 360.769318,269.245605 
	C354.652130,271.992401 351.390289,271.355865 346.805603,266.099915 
	C345.862244,265.018433 344.086945,263.890625 342.801422,264.002777 
	C333.269775,264.834290 323.765045,265.973785 314.207825,267.021362 
	C312.627350,279.614655 311.121490,291.613251 309.546997,304.158936 
	C311.996094,304.158936 313.944885,304.494873 315.728882,304.095184 
	C320.814758,302.955627 324.454956,304.229584 326.716980,309.221924 
	C327.277283,310.458466 329.046844,312.015656 330.202271,311.969391 
	C336.474121,311.718201 340.419067,313.799835 340.073669,321.388428 
	C344.951874,318.077637 347.446014,309.728058 354.646332,315.522369 
	C358.007690,318.227325 357.538788,321.928986 354.844147,325.751923 
	C354.782257,326.106720 354.720398,326.461548 354.658508,326.816345 
	C355.205170,326.650085 355.751801,326.483826 356.863647,325.899750 
M431.121063,308.350311 
	C432.570648,315.219452 433.988129,315.961578 441.118225,313.339478 
	C437.782593,296.503448 434.438171,279.623138 431.017883,262.359833 
	C428.145386,263.195404 425.703064,263.905853 423.026306,264.684509 
	C425.721924,279.157715 428.360596,293.325043 431.121063,308.350311 
M306.864197,291.143951 
	C307.894165,282.897583 308.933014,274.652283 309.951385,266.404480 
	C310.786469,259.640625 309.977692,258.859680 302.353119,259.473572 
	C300.065521,276.394653 297.764862,293.412476 295.442139,310.593506 
	C298.801941,310.593506 301.370728,310.593506 304.251801,310.593506 
	C305.091827,304.180420 305.888092,298.101562 306.864197,291.143951 
M336.321899,325.087219 
	C335.976135,325.531677 335.630371,325.976135 335.284637,326.420654 
	C335.744904,326.216431 336.205170,326.012207 336.321899,325.087219 
z"/>
<path fill="#2CCCD0" opacity="1.000000" stroke="none" 
	d="
M390.927338,416.074768 
	C397.118347,426.282837 403.112183,436.184174 409.106049,446.085541 
	C409.423370,446.011047 409.740723,445.936554 410.058044,445.862061 
	C410.058044,427.349884 410.058044,408.837708 410.058044,389.674988 
	C415.844086,389.674988 421.061035,389.674988 426.506073,389.674988 
	C426.650299,391.518158 426.838593,392.808319 426.839386,394.098572 
	C426.856506,421.579254 426.774170,449.060394 426.941193,476.540039 
	C426.964935,480.444275 425.742401,481.699066 421.942902,481.968170 
	C415.729248,482.408295 411.274170,481.563538 407.640411,475.149780 
	C397.987701,458.112366 387.298676,441.662048 376.291687,423.792877 
	C376.291687,443.544250 376.291687,462.022919 376.291687,481.513153 
	C371.058594,481.513153 366.342804,481.756104 361.695557,481.300140 
	C360.808044,481.213074 359.558411,478.373932 359.545807,476.795990 
	C359.395874,457.977081 359.448334,439.156555 359.448029,420.336456 
	C359.447845,410.363495 359.447998,400.390564 359.447998,389.580200 
	C364.120300,389.580200 368.420197,389.201050 372.592865,389.764404 
	C374.293457,389.994019 376.135773,392.001343 377.195892,393.658905 
	C381.850616,400.936981 386.242798,408.382965 390.927338,416.074768 
z"/>
<path fill="#2BCCD0" opacity="1.000000" stroke="none" 
	d="
M493.989258,440.882355 
	C493.989288,423.751648 493.989288,407.106049 493.989288,389.806274 
	C500.337158,389.806274 506.344330,389.806274 512.849915,389.806274 
	C512.849915,395.420258 512.924561,400.556366 512.835999,405.689697 
	C512.563171,421.503845 512.602844,437.336243 511.786682,453.123596 
	C511.231689,463.858490 507.038086,473.110138 497.066895,478.781464 
	C480.897491,487.978058 456.087036,482.391052 448.849213,467.195312 
	C446.140350,461.508057 444.616730,454.770020 444.433960,448.456635 
	C443.875397,429.161987 444.231079,409.840881 444.231079,389.840302 
	C450.121735,389.840302 455.949158,389.840302 462.546997,389.840302 
	C462.546997,392.074585 462.532867,394.000702 462.549194,395.926544 
	C462.693024,412.916321 462.809784,429.906494 463.025757,446.895355 
	C463.057251,449.370239 463.426788,451.865997 463.886230,454.305725 
	C465.530182,463.035126 470.418518,467.010284 479.072845,466.807098 
	C486.687195,466.628326 491.642151,462.078522 492.866913,453.788483 
	C493.473541,449.682495 493.629425,445.509918 493.989258,440.882355 
z"/>
<path fill="#2BCCD0" opacity="1.000000" stroke="none" 
	d="
M556.881470,452.030151 
	C553.961121,452.044250 551.512878,452.044250 548.545166,452.044250 
	C548.545166,459.891968 548.547119,467.178467 548.544617,474.464996 
	C548.542175,481.643921 548.541443,481.686035 541.123596,481.901581 
	C537.517273,482.006378 533.905396,481.919708 530.126343,481.919708 
	C530.126343,450.527466 530.126343,420.147583 530.126343,388.291565 
	C542.823914,388.807129 555.316956,388.324432 567.487854,390.077911 
	C580.508301,391.953766 588.805786,401.930206 590.007263,413.961456 
	C591.802124,431.934784 586.767273,443.057007 573.288635,448.688477 
	C568.371826,450.742828 562.687561,450.960480 556.881470,452.030151 
M555.224426,403.869720 
	C553.131836,403.869720 551.039246,403.869720 548.568298,403.869720 
	C548.568298,414.323914 548.510376,423.961945 548.652466,433.597046 
	C548.667664,434.627838 549.621155,436.202515 550.527344,436.571198 
	C556.095642,438.836609 566.265808,434.728760 569.204224,429.244995 
	C575.441284,417.605225 569.276001,405.681641 555.224426,403.869720 
z"/>
<path fill="#2DCDD0" opacity="1.000000" stroke="none" 
	d="
M186.863617,465.445435 
	C195.974518,465.448730 196.484451,465.975159 195.936630,474.764801 
	C195.813934,476.733551 195.450287,478.687286 195.166031,480.892639 
	C177.609818,480.892639 160.364655,480.892639 142.781677,480.892639 
	C142.781677,450.666260 142.781677,420.610260 142.781677,389.816437 
	C146.159332,389.816437 149.418900,389.816437 152.678452,389.816467 
	C164.831528,389.816559 176.991516,390.052429 189.134094,389.695404 
	C193.700439,389.561127 195.052765,391.383636 194.966660,395.365936 
	C194.963089,395.531677 194.987732,395.697876 194.996124,395.864014 
	C195.476059,405.381653 195.311981,405.554810 185.807831,405.555023 
	C177.828232,405.555237 169.848633,405.555054 161.443542,405.555054 
	C161.443542,412.092621 161.443542,418.302948 161.443542,425.356934 
	C169.994095,425.356934 178.676453,425.356934 187.180740,425.356934 
	C189.946243,440.577728 189.468231,441.183563 175.504257,441.183533 
	C170.879745,441.183533 166.255234,441.183563 161.329315,441.183563 
	C161.329315,449.399902 161.329315,457.115967 161.329315,465.445251 
	C169.833771,465.445251 178.109695,465.445251 186.863617,465.445435 
z"/>
<path fill="#2BCCD0" opacity="1.000000" stroke="none" 
	d="
M298.098022,389.821228 
	C313.549438,389.821136 328.513763,389.821136 344.103943,389.821136 
	C344.103943,395.183563 344.103943,400.060059 344.103943,405.548431 
	C334.519562,405.548431 325.390778,405.795715 316.284882,405.445679 
	C311.628387,405.266724 310.383881,406.800140 310.445648,411.340942 
	C310.637482,425.449921 310.459595,425.452301 324.459808,425.452301 
	C328.443848,425.452301 332.427887,425.452332 337.123383,425.452332 
	C337.123383,430.699951 337.123383,435.571106 337.123383,441.097412 
	C328.341492,441.097412 319.776947,441.097412 310.620850,441.097412 
	C310.620850,448.848724 310.484344,455.967957 310.800568,463.067047 
	C310.838409,463.916138 313.321320,465.302612 314.700317,465.339447 
	C322.861115,465.557373 331.030640,465.450287 339.197205,465.452332 
	C340.995789,465.452789 342.794373,465.452454 345.052979,465.452454 
	C345.052979,470.791138 345.052979,475.574341 345.052979,480.767578 
	C327.433014,480.767578 310.052917,480.767578 292.329346,480.767578 
	C292.329346,450.716125 292.329346,420.644165 292.329346,389.821289 
	C294.099335,389.821289 295.855133,389.821289 298.098022,389.821228 
z"/>
<path fill="#2BCCD0" opacity="1.000000" stroke="none" 
	d="
M273.604950,415.707642 
	C267.006073,436.175903 260.410461,456.225128 254.098495,476.363251 
	C252.845062,480.362305 250.810577,481.867767 246.696167,482.031616 
	C231.977295,482.617828 232.103836,482.697205 227.550232,468.318665 
	C219.545441,443.042664 211.373550,417.819580 203.283569,392.570496 
	C203.087112,391.957336 203.030899,391.299225 202.755966,389.859131 
	C209.057495,389.859131 215.081085,389.734375 221.086105,390.011780 
	C221.866379,390.047821 222.877563,392.065216 223.231125,393.320007 
	C229.255753,414.702179 235.191101,436.109467 241.158020,457.507935 
	C241.418732,458.442902 241.793304,459.346100 242.526566,461.439575 
	C246.251648,448.191010 249.672668,436.031555 253.089081,423.870789 
	C255.877838,413.944183 258.826111,404.057800 261.354828,394.065277 
	C262.209198,390.689178 263.960815,389.320190 267.137024,389.289154 
	C271.737885,389.244171 276.339508,389.277588 281.944794,389.277588 
	C278.960571,398.712524 276.334167,407.016144 273.604950,415.707642 
z"/>
<path fill="#FEFFFF" opacity="1.000000" stroke="none" 
	d="
M355.221954,325.364227 
	C357.538788,321.928986 358.007690,318.227325 354.646332,315.522369 
	C347.446014,309.728058 344.951874,318.077637 340.073669,321.388428 
	C340.419067,313.799835 336.474121,311.718201 330.202271,311.969391 
	C329.046844,312.015656 327.277283,310.458466 326.716980,309.221924 
	C324.454956,304.229584 320.814758,302.955627 315.728882,304.095184 
	C313.944885,304.494873 311.996094,304.158936 309.546997,304.158936 
	C311.121490,291.613251 312.627350,279.614655 314.207825,267.021362 
	C323.765045,265.973785 333.269775,264.834290 342.801422,264.002777 
	C344.086945,263.890625 345.862244,265.018433 346.805603,266.099915 
	C351.390289,271.355865 354.652130,271.992401 360.769318,269.245605 
	C362.532318,268.453949 365.192841,268.438141 366.995361,269.168518 
	C374.904785,272.373383 381.742279,276.906250 387.140076,283.937469 
	C394.417389,293.416992 402.442993,302.338318 410.415710,311.259491 
	C413.497406,314.707764 410.855255,316.245178 408.909973,318.103943 
	C406.834595,320.087067 404.837524,320.565002 402.662933,317.789856 
	C397.345520,311.004089 391.797668,304.398895 386.095276,297.418304 
	C384.788910,298.455597 383.702698,299.318115 382.303284,300.429352 
	C387.968842,307.430084 393.263519,314.243011 398.881287,320.778229 
	C401.062988,323.316254 401.671387,325.340546 398.646637,327.203033 
	C396.041138,328.807373 393.182312,330.970032 390.379974,327.320129 
	C386.745819,322.586853 383.100342,317.862305 379.214264,312.815277 
	C377.869904,313.845978 376.763489,314.694214 375.398651,315.740601 
	C379.720032,321.417725 383.827362,326.813599 388.099121,332.425507 
	C385.731506,335.981415 382.247742,337.666412 378.783173,335.693054 
	C375.955048,334.082092 374.157135,330.662506 371.692169,327.800629 
	C370.475250,328.774841 369.375671,329.655121 368.159363,330.628845 
	C369.809723,332.945770 371.326630,335.075317 373.581421,338.240845 
	C369.499115,338.491119 366.318451,338.686127 362.730255,338.906097 
	C363.163330,333.651672 369.258087,329.524292 363.515198,325.560333 
	C362.066376,324.560272 359.121185,325.728119 356.314331,325.867615 
	C355.584015,325.678406 355.402985,325.521301 355.221954,325.364227 
z"/>
<path fill="#FAFEFE" opacity="1.000000" stroke="none" 
	d="
M431.060181,307.921326 
	C428.360596,293.325043 425.721924,279.157715 423.026306,264.684509 
	C425.703064,263.905853 428.145386,263.195404 431.017883,262.359833 
	C434.438171,279.623138 437.782593,296.503448 441.118225,313.339478 
	C433.988129,315.961578 432.570648,315.219452 431.060181,307.921326 
z"/>
<path fill="#FCFEFE" opacity="1.000000" stroke="none" 
	d="
M306.774292,291.583313 
	C305.888092,298.101562 305.091827,304.180420 304.251801,310.593506 
	C301.370728,310.593506 298.801941,310.593506 295.442139,310.593506 
	C297.764862,293.412476 300.065521,276.394653 302.353119,259.473572 
	C309.977692,258.859680 310.786469,259.640625 309.951385,266.404480 
	C308.933014,274.652283 307.894165,282.897583 306.774292,291.583313 
z"/>
<path fill="#FFFFFF" opacity="1.000000" stroke="none" 
	d="
M321.695801,315.629333 
	C322.074463,315.270935 322.642975,315.141998 323.211517,315.013031 
	C323.076447,315.382812 322.941376,315.752563 322.539124,316.217346 
	C322.143158,316.161133 322.014404,316.009949 321.695801,315.629333 
z"/>
<path fill="#FFFFFF" opacity="1.000000" stroke="none" 
	d="
M336.493652,325.447632 
	C336.205170,326.012207 335.744904,326.216431 335.284607,326.420654 
	C335.630371,325.976135 335.976135,325.531677 336.493652,325.447632 
z"/>
<path fill="#FEFFFF" opacity="1.000000" stroke="none" 
	d="
M356.031738,326.076538 
	C355.751801,326.483826 355.205170,326.650085 354.658508,326.816345 
	C354.720398,326.461548 354.782257,326.106720 355.033051,325.558075 
	C355.402985,325.521301 355.584015,325.678406 356.031738,326.076538 
z"/>
<path fill="#FDFFFF" opacity="1.000000" stroke="none" 
	d="
M555.674988,403.910400 
	C569.276001,405.681641 575.441284,417.605225 569.204224,429.244995 
	C566.265808,434.728760 556.095642,438.836609 550.527344,436.571198 
	C549.621155,436.202515 548.667664,434.627838 548.652466,433.597046 
	C548.510376,423.961945 548.568298,414.323914 548.568298,403.869720 
	C551.039246,403.869720 553.131836,403.869720 555.674988,403.910400 
z"/>
</svg>